<mxfile host="Electron" modified="2024-07-20T13:40:54.338Z" agent="Mozilla/5.0 (Macintosh; Intel Mac OS X 10_15_7) AppleWebKit/537.36 (KHTML, like Gecko) draw.io/21.6.5 Chrome/114.0.5735.243 Electron/25.3.1 Safari/537.36" etag="TiD34i4CQiLnnw8TEX-o" version="21.6.5" type="device">
  <diagram name="Page-1" id="xg1CGVMe6lb2FSYL5Ftl">
    <mxGraphModel dx="2092" dy="778" grid="1" gridSize="10" guides="1" tooltips="1" connect="1" arrows="1" fold="1" page="1" pageScale="1" pageWidth="850" pageHeight="1100" math="0" shadow="0">
      <root>
        <mxCell id="0" />
        <mxCell id="1" value="background" style="" parent="0" />
        <mxCell id="RnQfjQortNnoBOIsLoTC-123" value="" style="rounded=0;whiteSpace=wrap;html=1;fontFamily=Helvetica;fontSize=11;fontColor=default;strokeColor=none;fillColor=none;" vertex="1" parent="1">
          <mxGeometry x="-280" y="40" width="1040" height="670" as="geometry" />
        </mxCell>
        <object label="" tags="1" id="-oUaasID4_S9qFNXjVjL-10">
          <mxCell style="edgeStyle=orthogonalEdgeStyle;rounded=0;orthogonalLoop=1;jettySize=auto;html=1;exitX=1;exitY=0.25;exitDx=0;exitDy=0;entryX=0;entryY=0.25;entryDx=0;entryDy=0;strokeWidth=2;fontSize=14;opacity=20;textOpacity=30;" parent="1" source="-oUaasID4_S9qFNXjVjL-1" target="-oUaasID4_S9qFNXjVjL-8" edge="1">
            <mxGeometry relative="1" as="geometry" />
          </mxCell>
        </object>
        <UserObject label="User" tags="" id="-oUaasID4_S9qFNXjVjL-1">
          <mxCell style="shape=image;editableCssRules=\.[haloColor,layerColor];imageAspect=0;aspect=fixed;verticalLabelPosition=bottom;verticalAlign=top;image=data:image/svg+xml,PHN2ZyB4bWxucz0iaHR0cDovL3d3dy53My5vcmcvMjAwMC9zdmciIHZpZXdCb3g9IjAgMCA2MC41IDYwLjUiPiYjeGE7ICA8c3R5bGUgdHlwZT0idGV4dC9jc3MiPi5oYWxvQ29sb3IgeyBmaWxsOiByZ2IoMCwgMCwgMCk7IH0gLmxheWVyQ29sb3IgeyBmaWxsOiByZ2IoMCwgMCwgMCk7IH0gPC9zdHlsZT4mI3hhOyAgPGNpcmNsZSBjeD0iMzAuMyIgY3k9IjMwLjMiIHI9IjMwLjMiIHN0eWxlPSIiIGZpbGw9IiNhMmEyYTIiIGNsYXNzPSJoYWxvQ29sb3IiLz4mI3hhOyAgPGNpcmNsZSBjbGFzcz0ibGF5ZXJDb2xvciIgY3g9IjMwLjMyNiIgY3k9IjMwLjM0NCIgcj0iMjUuMyIgc3R5bGU9IiIgZmlsbD0iI2EyYTJhMiIvPiYjeGE7ICA8cGF0aCBkPSJNIDM5LjUxNCAzOC4wMjMgTCAyMS45MTQgMzcuOTIzIEMgMTkuNTE0IDM3LjkyMyAxNy41MTQgMzkuODIzIDE3LjUxNCA0Mi4zMjMgTCAxNy41MTQgNDYuNzIzIEwgNDQuMDE0IDQ2LjkyMyBMIDQ0LjAxNCA0Mi41MjMgQyA0My45MTQgNDAuMDIzIDQxLjkxNCAzOC4wMjMgMzkuNTE0IDM4LjAyMyBaIE0gMzAuNjE0IDMzLjQyMyBDIDI0LjQxNCAzMy40MjMgMTkuNDE0IDI4LjMyMyAxOS40MTQgMjIuMjIzIEMgMTkuNDE0IDE2LjAyMyAyNC41MTQgMTEuMDIzIDMwLjYxNCAxMS4wMjMgQyAzNi44MTQgMTEuMDIzIDQxLjgxNCAxNi4wMjMgNDEuODE0IDIyLjIyMyBDIDQxLjgxNCAyOC40MjMgMzYuODE0IDMzLjQyMyAzMC42MTQgMzMuNDIzIFogTSAzMC42MTQgMTIuNDIzIEMgMjUuMjA2IDEyLjQzNCAyMC44MjUgMTYuODE1IDIwLjgxNCAyMi4yMjMgQyAyMC44MjUgMjcuNjMxIDI1LjIwNiAzMi4wMTIgMzAuNjE0IDMyLjAyMyBDIDM2LjAyMSAzMi4wMTIgNDAuNDAzIDI3LjYzMSA0MC40MTQgMjIuMjIzIEMgNDAuNDAzIDE2LjgxNSAzNi4wMjEgMTIuNDM0IDMwLjYxNCAxMi40MjMgWiIgZmlsbD0iI2ZmZiIvPiYjeGE7PC9zdmc+;shadow=0;glass=0;dashed=1;dashPattern=1 4;strokeColor=#000000;strokeWidth=1;fillColor=none;gradientColor=none;align=center;fontSize=14;opacity=20;textOpacity=30;" parent="1" vertex="1">
            <mxGeometry x="149.9999999999999" y="330" width="60" height="60" as="geometry" />
          </mxCell>
        </UserObject>
        <mxCell id="-oUaasID4_S9qFNXjVjL-16" style="edgeStyle=orthogonalEdgeStyle;rounded=0;orthogonalLoop=1;jettySize=auto;html=1;exitX=0;exitY=0.75;exitDx=0;exitDy=0;entryX=1;entryY=0.75;entryDx=0;entryDy=0;strokeWidth=2;fontSize=14;opacity=20;textOpacity=30;" parent="1" source="-oUaasID4_S9qFNXjVjL-4" target="-oUaasID4_S9qFNXjVjL-8" edge="1">
          <mxGeometry relative="1" as="geometry" />
        </mxCell>
        <mxCell id="-oUaasID4_S9qFNXjVjL-18" style="edgeStyle=orthogonalEdgeStyle;rounded=0;orthogonalLoop=1;jettySize=auto;html=1;exitX=0.5;exitY=1;exitDx=0;exitDy=0;entryX=0.5;entryY=0;entryDx=0;entryDy=0;strokeWidth=2;fontSize=14;opacity=20;textOpacity=30;" parent="1" source="-oUaasID4_S9qFNXjVjL-4" target="-oUaasID4_S9qFNXjVjL-5" edge="1">
          <mxGeometry relative="1" as="geometry" />
        </mxCell>
        <mxCell id="-oUaasID4_S9qFNXjVjL-20" style="edgeStyle=orthogonalEdgeStyle;rounded=0;orthogonalLoop=1;jettySize=auto;html=1;exitX=1;exitY=0.25;exitDx=0;exitDy=0;entryX=0;entryY=0.5;entryDx=0;entryDy=0;strokeWidth=2;fontSize=14;opacity=20;textOpacity=30;" parent="1" source="-oUaasID4_S9qFNXjVjL-4" target="-oUaasID4_S9qFNXjVjL-9" edge="1">
          <mxGeometry relative="1" as="geometry" />
        </mxCell>
        <mxCell id="RnQfjQortNnoBOIsLoTC-115" style="edgeStyle=orthogonalEdgeStyle;shape=connector;rounded=0;orthogonalLoop=1;jettySize=auto;html=1;exitX=1;exitY=0.5;exitDx=0;exitDy=0;labelBackgroundColor=default;strokeColor=default;strokeWidth=2;fontFamily=Helvetica;fontSize=14;fontColor=default;endArrow=classic;opacity=20;textOpacity=30;" edge="1" parent="1" source="-oUaasID4_S9qFNXjVjL-4" target="-oUaasID4_S9qFNXjVjL-6">
          <mxGeometry relative="1" as="geometry" />
        </mxCell>
        <mxCell id="-oUaasID4_S9qFNXjVjL-4" value="Public Gateway" style="shape=image;editableCssRules=\.[haloColor,layerColor];verticalLabelPosition=bottom;labelBackgroundColor=none;verticalAlign=top;aspect=fixed;imageAspect=0;image=data:image/svg+xml,PHN2ZyB4bWxucz0iaHR0cDovL3d3dy53My5vcmcvMjAwMC9zdmciIHZpZXdCb3g9IjAgMCA1OS41IDU5LjUiPiYjeGE7ICA8c3R5bGUgdHlwZT0idGV4dC9jc3MiPi5oYWxvQ29sb3IgeyBmaWxsOiByZ2IoMTEwLCAxOTAsIDc0KTsgfSAubGF5ZXJDb2xvciB7IGZpbGw6IHJnYigxMTAsIDE5MCwgNzQpOyB9IDwvc3R5bGU+JiN4YTsgIDxjaXJjbGUgY3g9IjI5LjgiIGN5PSIyOS44IiByPSIyOS44IiBjbGFzcz0iaGFsb0NvbG9yIiBzdHlsZT0iIiBmaWxsPSIjYTJhMmEyIi8+JiN4YTsgIDxjaXJjbGUgZmlsbD0iI2EyYTJhMiIgY2xhc3M9ImxheWVyQ29sb3IiIGN4PSIyOS43NyIgY3k9IjI5LjgyNSIgcj0iMjQuOCIgc3R5bGU9IiIvPiYjeGE7ICA8cGF0aCBkPSJNIDEzLjg4MSA0NC42ODggTCAxMy44ODEgMzguNTI2IEwgMTguOTk1IDQxLjYwNiBaIE0gMTMuODgxIDIwLjk2MiBMIDEzLjg4MSAxNC44MTIgTCAxOC45OTUgMTcuODkzIFogTSAxMy44ODEgMzIuODI1IEwgMTMuODgxIDI2LjY3IEwgMTguOTk1IDI5Ljc1IFogTSAzNC44OTEgMTYuNDk5IEwgMjEuNjc1IDE2LjUyNSBMIDIxLjY3OSAxOS4wMTUgTCAzMi40MDIgMTkgTCAzMi4zODIgMjguNjI1IEwgMjEuNjc5IDI4LjYxNSBMIDIxLjY3NyAzMS4xMDUgTCAzMi4zNzYgMzEuMTE1IEwgMzIuMzU2IDQwLjM0NCBMIDIxLjY0MSA0MC4zNTggTCAyMS42NDYgNDIuODQ4IEwgMzQuODQxIDQyLjgyOSBMIDM0Ljg2NSAzMS4xMjQgTCA0Mi4zOTIgMzEuMTMxIEwgNDIuMzk0IDI4LjY0MSBMIDM0Ljg3MSAyOC42MzUgWiBNIDQ1LjIyMiAzMy40NzkgTCA0NS4yMjIgMjUuODg5IEwgNTEuODgxIDI5LjY4OSBaIiBmaWxsPSIjZmZmIi8+JiN4YTs8L3N2Zz4=;spacingTop=-4;strokeWidth=2;fontSize=14;opacity=20;textOpacity=30;" parent="1" vertex="1">
          <mxGeometry x="470" y="330" width="60" height="60" as="geometry" />
        </mxCell>
        <mxCell id="RnQfjQortNnoBOIsLoTC-116" style="edgeStyle=orthogonalEdgeStyle;shape=connector;rounded=0;orthogonalLoop=1;jettySize=auto;html=1;exitX=0;exitY=0.5;exitDx=0;exitDy=0;entryX=1;entryY=0.75;entryDx=0;entryDy=0;labelBackgroundColor=default;strokeColor=default;strokeWidth=2;fontFamily=Helvetica;fontSize=14;fontColor=default;endArrow=classic;opacity=20;textOpacity=30;" edge="1" parent="1" source="-oUaasID4_S9qFNXjVjL-6" target="-oUaasID4_S9qFNXjVjL-4">
          <mxGeometry relative="1" as="geometry" />
        </mxCell>
        <mxCell id="-oUaasID4_S9qFNXjVjL-6" value="Resource" style="shape=image;editableCssRules=\.[haloColor,layerColor];verticalLabelPosition=bottom;labelBackgroundColor=none;verticalAlign=top;aspect=fixed;imageAspect=0;image=data:image/svg+xml,PHN2ZyB4bWxucz0iaHR0cDovL3d3dy53My5vcmcvMjAwMC9zdmciIHZpZXdCb3g9IjAgMCA1OS41IDU5LjUiPiYjeGE7ICA8c3R5bGUgdHlwZT0idGV4dC9jc3MiPi5oYWxvQ29sb3IgeyBmaWxsOiByZ2IoMzAsIDY4LCAxMTMpOyB9IC5sYXllckNvbG9yIHsgZmlsbDogcmdiKDMwLCA2OCwgMTEzKTsgfSA8L3N0eWxlPiYjeGE7ICA8Y2lyY2xlIGN4PSIyOS44IiBjeT0iMjkuOCIgcj0iMjkuOCIgY2xhc3M9ImhhbG9Db2xvciIgc3R5bGU9IiIgZmlsbD0iI2EyYTJhMiIvPiYjeGE7ICA8Y2lyY2xlIGZpbGw9IiNhMmEyYTIiIGNsYXNzPSJsYXllckNvbG9yIiBjeD0iMjkuNzciIGN5PSIyOS44MjUiIHI9IjI0LjgiIHN0eWxlPSIiLz4mI3hhOyAgPGcgZmlsbD0iI2ZmZiIgdHJhbnNmb3JtPSJtYXRyaXgoMSwgMCwgMCwgMSwgMC4wNzI2MTgsIC0wLjQxODc1KSI+JiN4YTsgICAgPHBhdGggZD0iTTE5LjYgNDUuM2gyMS45djEuM0gxOS42em0yMS44LTIwQTExLjIyIDExLjIyIDAgMCAwIDI5LjMgMTVjLTUuMS40LTkuMyA0LjMtMTAuMiA5LjRsLTEuMy0uMmMxLjEtNi44IDcuNS0xMS40IDE0LjMtMTAuMyA1LjcuOSAxMCA1LjYgMTAuNSAxMS4zbC0xLjIuMXoiLz4mI3hhOyAgICA8cGF0aCBkPSJNMTkuNiA0Ni42Yy02LjMgMC0xMS41LTUuMi0xMS41LTExLjVzNS4yLTExLjUgMTEuNS0xMS41YzIuOCAwIDUuNSAxIDcuNiAyLjlsLS44IDFjLTQuMi0zLjctMTAuNi0zLjQtMTQuNC44cy0zLjMgMTAuNy45IDE0LjRhMTAuMTQgMTAuMTQgMCAwIDAgNi44IDIuNmguMnYxLjNoLS4zem0yMS42IDBsLS4xLTEuM2guMWM1LjMtLjEgOS42LTQuNSA5LjUtOS45LS4xLTUuMS00LjItOS4zLTkuMy05LjV2LTEuM2M2IC42IDEwLjQgNiA5LjggMTIuMS0uNiA1LjMtNC44IDkuNS0xMCA5Ljl6Ii8+JiN4YTsgICAgPGNpcmNsZSBjeD0iMTcuOCIgY3k9IjMxLjgiIHI9IjMuOSIvPiYjeGE7ICAgIDxjaXJjbGUgY3g9IjQxLjYiIGN5PSIzNi40IiByPSI2LjYiLz4mI3hhOyAgICA8Y2lyY2xlIGN4PSIzMy41IiBjeT0iMjUuMyIgcj0iNC4xIi8+JiN4YTsgICAgPGNpcmNsZSBjeD0iMjkuNCIgY3k9IjM4LjkiIHI9IjQuMSIvPiYjeGE7ICAgIDxjaXJjbGUgY3g9IjI2LjMiIGN5PSIyMC43IiByPSIyLjEiLz4mI3hhOyAgICA8Y2lyY2xlIGN4PSIxOS42IiBjeT0iNDAuMSIgcj0iMi4xIi8+JiN4YTsgICAgPGNpcmNsZSBjeD0iMjYuMyIgY3k9IjMwLjkiIHI9IjIuMSIvPiYjeGE7ICAgIDxwYXRoIGQ9Ik0xOS4zIDQwLjZsLTEuOS04LjcuOC0uMiAxLjggNy45IDkuMy0xLjIgMTEuNS0yLjMtNy42LTEwLjUtNy4xLTQuNi40LS43IDcuMyA0LjYgOC41IDExLjctMTIuOCAyLjd6Ii8+JiN4YTsgICAgPHBhdGggZD0iTTI5LjggMzguMWwtLjgtLjMgMy42LTExLjMtNiA0LjgtLjYtLjcgOC4zLTYuNnptLTEyLjYtNi40NzRsLjQzLS42NzUgMTEuODk2IDcuNTctLjQzLjY3NXoiLz4mI3hhOyAgPC9nPiYjeGE7PC9zdmc+;strokeWidth=2;fontSize=14;opacity=20;textOpacity=30;" parent="1" vertex="1">
          <mxGeometry x="650" y="410" width="60" height="60" as="geometry" />
        </mxCell>
        <mxCell id="-oUaasID4_S9qFNXjVjL-26" style="edgeStyle=orthogonalEdgeStyle;rounded=0;orthogonalLoop=1;jettySize=auto;html=1;exitX=0;exitY=0.75;exitDx=0;exitDy=0;entryX=0.75;entryY=0;entryDx=0;entryDy=0;strokeWidth=2;fontSize=14;opacity=20;textOpacity=30;" parent="1" source="-oUaasID4_S9qFNXjVjL-7" target="-oUaasID4_S9qFNXjVjL-8" edge="1">
          <mxGeometry relative="1" as="geometry" />
        </mxCell>
        <mxCell id="-oUaasID4_S9qFNXjVjL-7" value="External IDP" style="shape=image;editableCssRules=\.[haloColor,layerColor];verticalLabelPosition=bottom;labelBackgroundColor=none;verticalAlign=top;aspect=fixed;imageAspect=0;image=data:image/svg+xml,PHN2ZyB4bWxucz0iaHR0cDovL3d3dy53My5vcmcvMjAwMC9zdmciIHhtbG5zOnhsaW5rPSJodHRwOi8vd3d3LnczLm9yZy8xOTk5L3hsaW5rIiB2aWV3Qm94PSIwIDAgNjAgNjAiPiYjeGE7ICA8c3R5bGUgdHlwZT0idGV4dC9jc3MiPi5oYWxvQ29sb3IgeyBmaWxsOiByZ2IoMjI3LCAzNiwgMjcpOyB9IC5sYXllckNvbG9yIHsgZmlsbDogcmdiKDIyNywgMzYsIDI3KTsgfSA8L3N0eWxlPiYjeGE7ICA8c3ltYm9sIGlkPSJBIiB2aWV3Qm94PSItMjYuNSAtMjYuNSA1MyA1MyI+JiN4YTsgICAgPGNpcmNsZSBjeD0iMCIgY3k9IjAiIHI9IjI2LjUiIGZpbGw9IiNhMmEyYTIiIGNsYXNzPSJoYWxvQ29sb3IiLz4mI3hhOyAgPC9zeW1ib2w+JiN4YTsgIDxzeW1ib2wgaWQ9IkIiIHZpZXdCb3g9Ii0yNi41IC0yNi41IDUzIDUzIj4mI3hhOyAgICA8Y2lyY2xlIGN4PSIwIiBjeT0iMCIgcj0iMjYuNSIgZmlsbD0iI2EyYTJhMiIgY2xhc3M9ImxheWVyQ29sb3IiLz4mI3hhOyAgPC9zeW1ib2w+JiN4YTsgIDx1c2Ugd2lkdGg9IjUzIiBoZWlnaHQ9IjUzIiB0cmFuc2Zvcm09Im1hdHJpeCgxLjEzMjA3NjAyNTAwOTE1NTMsIDAsIDAsIDEuMTMyMDc2MDI1MDA5MTU1MywgLTAuMDAwMDE1MDAwMDAxNDQwMDU3NTMxLCAtMC4wMDAwMTUwMDAwMDE0NDAwNTc1MzEpIiBzdHlsZT0iIiB4bGluazpocmVmPSIjQSIvPiYjeGE7ICA8dXNlIHdpZHRoPSI1MyIgaGVpZ2h0PSI1MyIgdHJhbnNmb3JtPSJtYXRyaXgoMC45NDMzOTYwOTE0NjExODE2LCAwLCAwLCAwLjk0MzM5NjA5MTQ2MTE4MTYsIDUuMDAwMDAzODE0Njk3MjY2LCA1LjAwMDAwMzgxNDY5NzI2NikiIHN0eWxlPSIiIHhsaW5rOmhyZWY9IiNCIi8+JiN4YTsgIDxwYXRoIGQ9Ik0gMzMuMjQzIDE5LjI5NiBMIDI2Ljc1NyAxOS4yOTYgQyAyNS44NzIgMTkuMjkxIDI1LjE1MyAyMC4wMDkgMjUuMTU4IDIwLjg5NSBMIDI1LjE1OCAyMi40OTQgTCAzNC45MzEgMjIuNTgyIEwgMzQuOTMxIDIwLjk4MyBDIDM0Ljg0MiAyMC4wOTUgMzQuMTMxIDE5LjI5NiAzMy4yNDMgMTkuMjk2IFogTSAyOS45NTUgMTcuNjA4IEMgMjcuNjQ1IDE3LjYwOCAyNS43OCAxNS43NDIgMjUuNzggMTMuNDMyIEMgMjUuNzggMTEuMTIyIDI3LjY0NSA5LjI1NyAyOS45NTUgOS4yNTcgQyAzMi4yNjUgOS4yNTcgMzQuMTMxIDExLjEyMiAzNC4xMzEgMTMuNDMyIEMgMzQuMDQyIDE1LjgzMSAzMi4xNzYgMTcuNjA4IDI5Ljk1NSAxNy42MDggWiBNIDI5Ljk1NSA5Ljg3OSBDIDI4LjAwMSA5Ljg3OSAyNi4zMTQgMTEuNDc4IDI2LjMxNCAxMy41MjIgQyAyNi4zMTQgMTUuNTY0IDI3LjkxMyAxNy4xNjMgMjkuOTU1IDE3LjE2MyBDIDMxLjkxIDE3LjE2MyAzMy41OTggMTUuNTY0IDMzLjU5OCAxMy41MjIgQyAzMy41OTggMTEuNDc4IDMxLjkxIDkuODc5IDI5Ljk1NSA5Ljg3OSBaIE0gMzMuMzMyIDQ3LjQ1NyBMIDI2Ljg0NiA0Ny40NTcgQyAyNS45NjEgNDcuNDUzIDI1LjI0MiA0OC4xNzEgMjUuMjQ3IDQ5LjA1NiBMIDI1LjI0NyA1MC42NTUgTCAzNS4wMTkgNTAuNzQ0IEwgMzUuMDE5IDQ5LjE0NSBDIDM1LjAxOSA0OC4xNjggMzQuMjIgNDcuNDU3IDMzLjMzMiA0Ny40NTcgWiBNIDMwLjA0NSA0NS43NyBDIDI3LjczNSA0NS43NyAyNS44NjkgNDMuOTA0IDI1Ljg2OSA0MS41OTQgQyAyNS44NjkgMzkuMjg0IDI3LjczNSAzNy40MTkgMzAuMDQ1IDM3LjQxOSBDIDMyLjM1NSAzNy40MTkgMzQuMjIgMzkuMjg0IDM0LjIyIDQxLjU5NCBDIDM0LjIyIDQzLjkwNCAzMi4zNTUgNDUuNzcgMzAuMDQ1IDQ1Ljc3IFogTSAzMC4wNDUgMzguMDQxIEMgMjguMDkgMzguMDQxIDI2LjQwMiAzOS42NCAyNi40MDIgNDEuNjgzIEMgMjYuNDAyIDQzLjcyNiAyOC4wMDEgNDUuMzI1IDMwLjA0NSA0NS4zMjUgQyAzMS45OTkgNDUuMzI1IDMzLjY4NiA0My43MjYgMzMuNjg2IDQxLjY4MyBDIDMzLjY4NiAzOS42NCAzMi4wODcgMzguMDQxIDMwLjA0NSAzOC4wNDEgWiBNIDQ3LjgxMiAzNS44MiBMIDQxLjMyNyAzNS44MiBDIDQwLjQ0MSAzNS44MTUgMzkuNzIzIDM2LjUzNCAzOS43MjggMzcuNDE5IEwgMzkuNzI4IDM5LjAxOCBMIDQ5LjUgMzkuMTA3IEwgNDkuNSAzNy40MTkgQyA0OS41IDM2LjUzMSA0OC43ODkgMzUuODIgNDcuODEyIDM1LjgyIFogTSA0NC41MjUgMzQuMTMyIEMgNDIuMjE1IDM0LjEzMiA0MC4zNSAzMi4yNjYgNDAuMzUgMjkuOTU2IEMgNDAuMzUgMjcuNjQ2IDQyLjIxNSAyNS43ODEgNDQuNTI1IDI1Ljc4MSBDIDQ2LjgzNCAyNS43ODEgNDguNyAyNy42NDYgNDguNyAyOS45NTYgQyA0OC43IDMyLjI2NiA0Ni44MzQgMzQuMTMyIDQ0LjUyNSAzNC4xMzIgWiBNIDQ0LjUyNSAyNi4zMTQgQyA0Mi41NzEgMjYuMzE0IDQwLjg4MyAyNy45MTMgNDAuODgzIDI5Ljk1NiBDIDQwLjg4MyAzMiA0Mi40ODIgMzMuNTk5IDQ0LjUyNSAzMy41OTkgQyA0Ni40NzkgMzMuNTk5IDQ4LjE2NyAzMiA0OC4xNjcgMjkuOTU2IEMgNDguMTY3IDI4LjAwMiA0Ni41NjggMjYuMzE0IDQ0LjUyNSAyNi4zMTQgWiBNIDE4LjU4NSAzNS44MiBMIDEyLjA5OSAzNS44MiBDIDExLjIxNCAzNS44MTUgMTAuNDk1IDM2LjUzNCAxMC41IDM3LjQxOSBMIDEwLjUgMzkuMDE4IEwgMjAuMjcyIDM5LjEwNyBMIDIwLjI3MiAzNy40MTkgQyAyMC4xODQgMzYuNTMxIDE5LjQ3MyAzNS44MiAxOC41ODUgMzUuODIgWiBNIDE1LjI5NyAzNC4xMzIgQyAxMi45ODcgMzQuMTMyIDExLjEyMiAzMi4yNjYgMTEuMTIyIDI5Ljk1NiBDIDExLjEyMiAyNy42NDYgMTIuOTg3IDI1Ljc4MSAxNS4yOTcgMjUuNzgxIEMgMTcuNjA3IDI1Ljc4MSAxOS40NzMgMjcuNjQ2IDE5LjQ3MyAyOS45NTYgQyAxOS40NzMgMzIuMjY2IDE3LjYwNyAzNC4xMzIgMTUuMjk3IDM0LjEzMiBaIE0gMTUuMjk3IDI2LjQwMiBDIDEzLjM0MyAyNi40MDIgMTEuNjU1IDI4LjAwMiAxMS42NTUgMzAuMDQ1IEMgMTEuNjU1IDMyIDEzLjI1NCAzMy42ODggMTUuMjk3IDMzLjY4OCBDIDE3LjI1MiAzMy42ODggMTguOTQgMzIuMDg5IDE4Ljk0IDMwLjA0NSBDIDE4Ljk0IDI4LjAwMiAxNy4zNDEgMjYuMzE0IDE1LjI5NyAyNi40MDIgQyAxNS4yOTcgMjYuMzE0IDE1LjI5NyAyNi4zMTQgMTUuMjk3IDI2LjQwMiBaIiBmaWxsPSIjZmZmIi8+JiN4YTsgIDxjaXJjbGUgY3g9IjI5Ljk1NSIgY3k9IjM1LjE5OCIgcj0iMTQuNjU4IiBmaWxsPSJub25lIiBzdHJva2U9IiNmZmYiLz4mI3hhOyAgPGcgZmlsbD0iI2ZmZiIgdHJhbnNmb3JtPSJtYXRyaXgoMC44ODgzODEsIDAsIDAsIDAuODg4MzgxLCAzLjQ4MTc5MywgNy4yMTMyMjMpIj4mI3hhOyAgICA8Y2lyY2xlIGN4PSIxMy4zIiBjeT0iMjUuNiIgcj0iNCIvPiYjeGE7ICAgIDxjaXJjbGUgY3g9IjI5LjgiIGN5PSI3LjEiIHI9IjQiLz4mI3hhOyAgICA8Y2lyY2xlIGN4PSIyOS45IiBjeT0iMzguNyIgcj0iNCIvPiYjeGE7ICAgIDxjaXJjbGUgY3g9IjQ2LjIiIGN5PSIyNS42IiByPSI0Ii8+JiN4YTsgIDwvZz4mI3hhOzwvc3ZnPg==;strokeWidth=2;fontSize=14;opacity=20;textOpacity=30;" parent="1" vertex="1">
          <mxGeometry x="470" y="170" width="60" height="60" as="geometry" />
        </mxCell>
        <mxCell id="-oUaasID4_S9qFNXjVjL-11" style="edgeStyle=orthogonalEdgeStyle;rounded=0;orthogonalLoop=1;jettySize=auto;html=1;exitX=1;exitY=0.25;exitDx=0;exitDy=0;entryX=0;entryY=0.25;entryDx=0;entryDy=0;strokeWidth=2;fontSize=14;opacity=20;textOpacity=30;" parent="1" source="-oUaasID4_S9qFNXjVjL-8" target="-oUaasID4_S9qFNXjVjL-4" edge="1">
          <mxGeometry relative="1" as="geometry" />
        </mxCell>
        <mxCell id="-oUaasID4_S9qFNXjVjL-25" style="edgeStyle=orthogonalEdgeStyle;rounded=0;orthogonalLoop=1;jettySize=auto;html=1;exitX=0.25;exitY=0;exitDx=0;exitDy=0;entryX=0;entryY=0.25;entryDx=0;entryDy=0;strokeWidth=2;fontSize=14;opacity=20;textOpacity=30;" parent="1" source="-oUaasID4_S9qFNXjVjL-8" target="-oUaasID4_S9qFNXjVjL-7" edge="1">
          <mxGeometry relative="1" as="geometry" />
        </mxCell>
        <mxCell id="-oUaasID4_S9qFNXjVjL-32" style="edgeStyle=orthogonalEdgeStyle;rounded=0;orthogonalLoop=1;jettySize=auto;html=1;exitX=0.25;exitY=1;exitDx=0;exitDy=0;entryX=0;entryY=0.75;entryDx=0;entryDy=0;strokeWidth=2;fontSize=14;opacity=20;textOpacity=30;" parent="1" source="-oUaasID4_S9qFNXjVjL-8" target="-oUaasID4_S9qFNXjVjL-5" edge="1">
          <mxGeometry relative="1" as="geometry" />
        </mxCell>
        <mxCell id="RnQfjQortNnoBOIsLoTC-117" style="edgeStyle=orthogonalEdgeStyle;shape=connector;rounded=0;orthogonalLoop=1;jettySize=auto;html=1;exitX=0;exitY=0.75;exitDx=0;exitDy=0;entryX=1;entryY=0.75;entryDx=0;entryDy=0;labelBackgroundColor=default;strokeColor=default;strokeWidth=2;fontFamily=Helvetica;fontSize=11;fontColor=default;endArrow=classic;opacity=20;" edge="1" parent="1" source="-oUaasID4_S9qFNXjVjL-8" target="-oUaasID4_S9qFNXjVjL-1">
          <mxGeometry relative="1" as="geometry" />
        </mxCell>
        <UserObject label="Web Client" tags="1" id="-oUaasID4_S9qFNXjVjL-8">
          <mxCell style="shape=image;editableCssRules=\.[haloColor,layerColor];imageAspect=0;aspect=fixed;verticalLabelPosition=bottom;verticalAlign=top;fontSize=14;fontColor=#000000;align=center;image=data:image/svg+xml,PHN2ZyB4bWxucz0iaHR0cDovL3d3dy53My5vcmcvMjAwMC9zdmciIHdpZHRoPSIxMDAuMDMyIiBoZWlnaHQ9IjEwMC4wMzIiIHZpZXdCb3g9IjAgMCA3NSA3NSIgZmlsbD0ibm9uZSIgZmlsbC1ydWxlPSJldmVub2RkIiBvdmVyZmxvdz0idmlzaWJsZSIgc3Ryb2tlLWxpbmVjYXA9InNxdWFyZSIgc3Ryb2tlLW1pdGVybGltaXQ9IjMiIGNvbG9yLWludGVycG9sYXRpb24tZmlsdGVycz0ic1JHQiI+JiN4YTsgIDxzdHlsZSB0eXBlPSJ0ZXh0L2NzcyI+LmhhbG9Db2xvciB7IGZpbGw6IHJnYigyNTEsIDE3MSwgMjQpOyB9IC5sYXllckNvbG9yIHsgZmlsbDogcmdiKDI1MSwgMTcxLCAyNCk7IH0gPC9zdHlsZT4mI3hhOyAgPGNpcmNsZSByPSIzNy41IiBjeD0iMzcuNSIgY3k9IjM3LjUiIGNvbG9yLWludGVycG9sYXRpb24tZmlsdGVycz0ic1JHQiIgZmlsbD0iI2EyYTJhMiIgY2xhc3M9ImhhbG9Db2xvciIvPiYjeGE7ICA8Y2lyY2xlIGZpbGw9IiNhMmEyYTIiIHI9IjMyLjUiIGN4PSIzNy40NDkiIGN5PSIzNy41MDMiIGNvbG9yLWludGVycG9sYXRpb24tZmlsdGVycz0ic1JHQiIgc3R5bGU9IiIgY2xhc3M9ImxheWVyQ29sb3IiLz4mI3hhOyAgPHBhdGggZD0iTSAxOC4wODMgMjAuNzUyIEwgNTcuODgzIDIwLjc1MiBMIDU3Ljg4MyA1MS45NTIgTCAxOC4wODMgNTEuOTUyIFoiIGZpbGw9IiNmZmYiLz4mI3hhOyAgPHBhdGggZD0iTSAyMS4xODMgMjMuODUyIEwgNTQuODgzIDIzLjg1MiBMIDU0Ljg4MyA0Ny45NTIgTCAyMS4xODMgNDcuOTUyIFoiIHN0eWxlPSIiIGZpbGw9IiNhMmEyYTIiIGNsYXNzPSJsYXllckNvbG9yIi8+JiN4YTsgIDxwYXRoIGQ9Ik0gMjEuMTgzIDUyLjg1MiBMIDU0Ljg4MyA1Mi44NTIgTCA1NC44ODMgNTUuNzUyIEwgMjEuMTgzIDU1Ljc1MiBaIiBmaWxsPSIjZmZmIi8+JiN4YTs8L3N2Zz4=;strokeWidth=2;opacity=20;textOpacity=30;" parent="1" vertex="1">
            <mxGeometry x="310" y="330" width="60" height="60" as="geometry" />
          </mxCell>
        </UserObject>
        <mxCell id="-oUaasID4_S9qFNXjVjL-9" value="Authorization" style="shape=image;editableCssRules=\.[haloColor,layerColor];verticalLabelPosition=bottom;labelBackgroundColor=none;verticalAlign=top;aspect=fixed;imageAspect=0;image=data:image/svg+xml,PHN2ZyB4bWxucz0iaHR0cDovL3d3dy53My5vcmcvMjAwMC9zdmciIHZpZXdCb3g9IjAgMCA1OS44IDU5LjgiPiYjeGE7ICA8c3R5bGUgdHlwZT0idGV4dC9jc3MiPi5oYWxvQ29sb3IgeyBmaWxsOiByZ2IoMjI3LCAzNiwgMjcpOyB9IC5sYXllckNvbG9yIHsgZmlsbDogcmdiKDIyNywgMzYsIDI3KTsgfSA8L3N0eWxlPiYjeGE7ICA8Y2lyY2xlIGN4PSIyOS45IiBjeT0iMjkuOSIgcj0iMjkuOSIgZmlsbD0iI2EyYTJhMiIgY2xhc3M9ImhhbG9Db2xvciIvPiYjeGE7ICA8Y2lyY2xlIGN4PSIyOS45IiBjeT0iMjkuOSIgcj0iMjUiIGZpbGw9IiNhMmEyYTIiIGNsYXNzPSJsYXllckNvbG9yIi8+JiN4YTsgIDxnIGZpbGw9IiNmZmYiPiYjeGE7ICAgIDxwYXRoIGQ9Ik0xMy4zIDQ1LjJWMTQuN2MwLS40LjQtLjYuNy0uNnMuNS4zLjYuNnYyOC45bDEwLjEtM1YxOGMwLS40LjQtLjYuNy0uNnMuNS4zLjYuNnYyMy40bC0xMi43IDMuOHoiLz4mI3hhOyAgICA8cGF0aCBkPSJNMTYuNSA0NGMtLjIgMC0uNC0uMi0uNC0uNFYxNS44YzAtLjIuMy0uNC41LS40cy4zLjIuNC40djI3LjhjMCAuMi0uMi40LS41LjR6bTMtLjljLS4yIDAtLjQtLjItLjQtLjRWMTYuNWMwLS4yLjMtLjQuNS0uNHMuMy4yLjQuNHYyNi4yYzAgLjItLjIuNC0uNS40em0yLjktMWMtLjIgMC0uNC0uMi0uNC0uNFYxNy4yYzAtLjIuMy0uNC41LS40cy4zLjIuNC40djI0LjZjLS4xLjItLjMuNC0uNS4zeiIvPiYjeGE7ICAgIDxwYXRoIGQ9Ik0yNS4xIDIxLjVsLTExLjQtMy4xLjMtLjcgMTEuMyAzLjF6Ii8+JiN4YTsgICAgPHBhdGggZD0iTTExLjkgMTQuMWgyLjZ2MzEuN2gtMi42em0zNC43IDMxLjFMMzQgNDEuNVYxOC4xYzAtLjQuNC0uNi43LS42cy41LjMuNi42djIyLjZsMTAuMSAzdi0yOWMwLS40LjQtLjYuNy0uNnMuNS4zLjYuNmwtLjEgMzAuNXoiLz4mI3hhOyAgICA8cGF0aCBkPSJNNDMuMyA0NGMtLjIgMC0uNC0uMi0uNC0uNFYxNS44YzAtLjIuMy0uNC41LS40cy4zLjIuNC40djI3LjhjLS4xLjItLjMuNC0uNS40em0tMy0uOWMtLjIgMC0uNC0uMi0uNC0uNFYxNi41YzAtLjIuMy0uNC41LS40cy4zLjIuNC40djI2LjNjLS4yLjItLjMuMy0uNS4zem0tMi45LTFjLS4yIDAtLjQtLjItLjQtLjRWMTcuMmMwLS4yLjMtLjQuNS0uNHMuMy4yLjQuNHYyNC42YS41NS41NSAwIDAgMS0uNS4zeiIvPiYjeGE7ICAgIDxwYXRoIGQ9Ik0zNC43IDIxLjVsLS4yLS43IDExLjMtMy4xLjMuN3oiLz4mI3hhOyAgICA8cGF0aCBkPSJNNDUuMyAxNGgyLjZ2MzEuN2gtMi42eiIvPiYjeGE7ICA8L2c+JiN4YTs8L3N2Zz4=;strokeColor=#000000;fillColor=none;gradientColor=none;fontSize=14;align=center;strokeWidth=2;opacity=20;textOpacity=30;" parent="1" vertex="1">
          <mxGeometry x="650" y="250" width="60" height="60" as="geometry" />
        </mxCell>
        <mxCell id="-oUaasID4_S9qFNXjVjL-33" style="edgeStyle=orthogonalEdgeStyle;rounded=0;orthogonalLoop=1;jettySize=auto;html=1;exitX=0;exitY=0.25;exitDx=0;exitDy=0;entryX=0.75;entryY=1;entryDx=0;entryDy=0;strokeWidth=2;fontSize=14;opacity=20;textOpacity=30;" parent="1" source="-oUaasID4_S9qFNXjVjL-5" target="-oUaasID4_S9qFNXjVjL-8" edge="1">
          <mxGeometry relative="1" as="geometry" />
        </mxCell>
        <UserObject label="OAuth Provider" tooltip="Athentication is the process or action of verifying the identity of a user or process." id="-oUaasID4_S9qFNXjVjL-5">
          <mxCell style="shape=image;editableCssRules=\.[haloColor,layerColor];imageAspect=0;aspect=fixed;verticalLabelPosition=bottom;verticalAlign=top;image=data:image/svg+xml,PHN2ZyB4bWxucz0iaHR0cDovL3d3dy53My5vcmcvMjAwMC9zdmciIHZpZXdCb3g9IjAgMCA1OS41IDU5LjUiPiYjeGE7ICA8c3R5bGUgdHlwZT0idGV4dC9jc3MiPi5oYWxvQ29sb3IgeyBmaWxsOiByZ2IoMjI3LCAzNiwgMjcpOyB9IC5sYXllckNvbG9yIHsgZmlsbDogcmdiKDIyNywgMzYsIDI3KTsgfSA8L3N0eWxlPiYjeGE7ICA8Y2lyY2xlIGN4PSIyOS44IiBjeT0iMjkuOCIgcj0iMjkuOCIgY2xhc3M9ImhhbG9Db2xvciIgc3R5bGU9IiIgZmlsbD0iI2EyYTJhMiIvPiYjeGE7ICA8Y2lyY2xlIGZpbGw9IiNhMmEyYTIiIGNsYXNzPSJsYXllckNvbG9yIiBjeD0iMjkuNzciIGN5PSIyOS44MjUiIHI9IjI0LjgiIHN0eWxlPSIiLz4mI3hhOyAgPHBhdGggaWQ9InN2Z18yIiBzdHJva2Utd2lkdGg9IjEuMzIiIHN0cm9rZT0iI2ZmZiIgZmlsbD0ibm9uZSIgc3Ryb2tlLW1pdGVybGltaXQ9IjEwIiBkPSJNIDE3LjQwNSAyNC4wMjUgQyAxNy4zMDUgMjMuMTI1IDE3LjMwNSAyMS43MjUgMTcuODA1IDIwLjAyNSBDIDE4LjMwNSAxOC4xMjUgMTkuMjA1IDE2LjkyNSAxOS43MDUgMTYuMjI1IEMgMjAuMjA1IDE1LjUyNSAyMS4zMDUgMTQuMDI1IDIzLjQwNSAxMi44MjUgQyAyNS4xMDUgMTEuOTI1IDI2LjYwNSAxMS42MjUgMjcuMzA1IDExLjQyNSBDIDI4LjgwNSAxMS4xMjUgMzAuMDA1IDExLjIyNSAzMC43MDUgMTEuMjI1IEMgMzIuNTA1IDExLjQyNSAzMy45MDUgMTEuOTI1IDM0LjIwNSAxMi4wMjUgQyAzNC42MDUgMTIuMjI1IDM2LjIwNSAxMi44MjUgMzcuODA1IDE0LjIyNSBDIDM5LjEwNSAxNS40MjUgMzkuODA1IDE2LjUyNSA0MC4wMDUgMTYuODI1IEMgNDAuOTA1IDE4LjIyNSA0MS4yMDUgMTkuNTI1IDQxLjMwNSAxOS43MjUgQyA0MS41MDUgMjAuNTI1IDQxLjYwNSAyMS4xMjUgNDEuNjA1IDIxLjYyNSBMIDQxLjgwNSAzMC4yMjUgTSAxNy4wMDUgMjYuNzI1IEMgMTcuMzA1IDI2LjcyNSAxNy45MDUgMjYuODI1IDE4LjYwNSAyNi40MjUgQyAxOS4zMDUgMjYuMTI1IDE5LjcwNSAyNS41MjUgMTkuODA1IDI1LjMyNSBDIDE5LjkwNSAyNS4yMjUgMjAuMTA1IDI0LjgyNSAyMC40MDUgMjMuNTI1IEMgMjAuNjA1IDIyLjQyNSAyMC41MDUgMjIuMTI1IDIwLjcwNSAyMS4zMjUgQyAyMC43MDUgMjEuMTI1IDIwLjkwNSAyMC4xMjUgMjEuMzA1IDE5LjIyNSBDIDIyLjIwNSAxNy40MjUgMjMuNzA1IDE2LjMyNSAyNC41MDUgMTUuODI1IEMgMjUuMTA1IDE1LjQyNSAyNS44MDUgMTQuOTI1IDI3LjAwNSAxNC42MjUgQyAyNy40MDUgMTQuNTI1IDI5LjUwNSAxMy45MjUgMzIuMDA1IDE0LjUyNSBDIDMyLjQwNSAxNC42MjUgMzMuNTA1IDE0LjkyNSAzNC44MDUgMTUuNzI1IEMgMzUuOTA1IDE2LjQyNSAzNi42MDUgMTcuMjI1IDM3LjEwNSAxNy44MjUgQyAzNy43MDUgMTguNTI1IDM4LjIwNSAxOS4xMjUgMzguNjA1IDIwLjEyNSBDIDM4LjgwNSAyMC43MjUgMzguOTA1IDIxLjEyNSAzOC45MDUgMjEuNTI1IEMgMzkuMTA1IDIyLjkyNSAzOS4xMDUgMjYuNDI1IDM5LjEwNSAyOS4zMjUgQyAzOS4xMDUgMjkuNjI1IDM4LjkwNSAzMC4zMjUgMzkuMzA1IDMwLjkyNSBDIDM5LjYwNSAzMS41MjUgNDAuMDA1IDMxLjgyNSA0MC40MDUgMzIuMDI1IEMgNDEuMTA1IDMyLjUyNSA0MS45MDUgMzIuNzI1IDQyLjQwNSAzMi44MjUgTSAxNy4wMDUgMjkuNzI1IEMgMTcuNDA1IDI5LjcyNSAxOC4wMDUgMjkuODI1IDE4LjgwNSAyOS42MjUgQyAxOS44MDUgMjkuNDI1IDIwLjUwNSAyOC45MjUgMjAuOTA1IDI4LjcyNSBDIDIxLjYyNiAyOC4zMDMgMjIuMjQxIDI3LjcyMSAyMi43MDUgMjcuMDI1IEMgMjMuMTA1IDI2LjQyNSAyMy4yMDUgMjUuNTI1IDIzLjQwNSAyMy44MjUgQyAyMy42MDUgMjIuMTI1IDIzLjYwNSAyMS44MjUgMjMuOTA1IDIxLjEyNSBDIDI0LjAwNSAyMC45MjUgMjQuMzA1IDIwLjEyNSAyNS4xMDUgMTkuMzI1IEMgMjUuNzA1IDE4LjYyNSAyNi40MDUgMTguMjI1IDI2LjcwNSAxOC4xMjUgQyAyNy41MDUgMTcuNjI1IDI4LjMwNSAxNy41MjUgMjguNTA1IDE3LjQyNSBDIDI5LjUwNSAxNy4yMjUgMzAuMzA1IDE3LjMyNSAzMC43MDUgMTcuNDI1IEMgMzEuMjA1IDE3LjUyNSAzMS44MDUgMTcuNjI1IDMyLjUwNSAxNy45MjUgQyAzMy4yMDUgMTguMjI1IDMzLjYwNSAxOC42MjUgMzQuMDA1IDE5LjAyNSBDIDM0LjQwNSAxOS40MjUgMzQuOTA1IDE5LjgyNSAzNS4zMDUgMjAuNjI1IEMgMzUuNzA1IDIxLjQyNSAzNS45MDUgMjIuMTI1IDM1LjkwNSAyMi40MjUgQyAzNi4wMDUgMjIuOTI1IDM2LjAwNSAyMy4zMjUgMzYuMDA1IDIzLjUyNSBDIDM1LjkwNSAyNi4wMjUgMzYuMjA1IDI4LjUyNSAzNi4xMDUgMzEuMDI1IEMgMzYuMTA1IDMxLjIyNSAzNi4xMDUgMzEuNzI1IDM2LjMwNSAzMi4yMjUgQyAzNi41MDUgMzIuODI1IDM3LjIwNSAzMy41MjUgMzcuODA1IDM0LjAyNSBDIDM4LjQwNSAzNC42MjUgMzkuMTA1IDM0LjkyNSAzOS4zMDUgMzUuMDI1IEMgMzkuODA1IDM1LjMyNSA0MC45MDUgMzUuNjI1IDQyLjQwNSAzNS43MjUgTSAxNy4wMDUgMzIuNzI1IEMgMTcuNDA1IDMyLjgyNSAxNy45MDUgMzIuOTI1IDE4LjYwNSAzMi44MjUgQyAxOS41MDUgMzIuNzI1IDIwLjIwNSAzMi40MjUgMjAuODA1IDMyLjAyNSBDIDIxLjEwNSAzMS45MjUgMjEuNzA1IDMxLjUyNSAyMi40MDUgMzEuMDI1IEMgMjIuODA1IDMwLjcyNSAyMy44MDUgMjkuOTI1IDI0LjcwNSAyOC42MjUgQyAyNS4zMDUgMjcuODI1IDI1LjUwNSAyNy40MjUgMjUuODA1IDI2LjcyNSBDIDI1LjkwNSAyNi42MjUgMjYuMDA1IDI2LjAyNSAyNi4xMDUgMjQuODI1IEMgMjYuMjA1IDI0LjEyNSAyNi4zMDUgMjMuNjI1IDI2LjUwNSAyMy4wMjUgQyAyNi43MDUgMjIuMjI1IDI2LjgwNSAyMi4wMjUgMjYuOTA1IDIxLjgyNSBDIDI3LjIwNSAyMS40MjUgMjcuNTA1IDIxLjIyNSAyNy45MDUgMjAuOTI1IEMgMjguNDA1IDIwLjYyNSAyOC44MDUgMjAuMzI1IDI5LjQwNSAyMC4yMjUgQyAyOS45MDUgMjAuMTI1IDMwLjMwNSAyMC4zMjUgMzAuNTA1IDIwLjMyNSBDIDMwLjYwNSAyMC4zMjUgMzEuMTA1IDIwLjUyNSAzMS41MDUgMjAuOTI1IEMgMzEuNjA1IDIxLjAyNSAzMi4xMDUgMjEuNDI1IDMyLjQwNSAyMi4wMjUgQyAzMi43MDUgMjIuNzI1IDMyLjcwNSAyMy4zMjUgMzIuNTA1IDI0LjUyNSBDIDMyLjMwNSAyNi4xMjUgMzIuMjA1IDI2LjkyNSAzMS45MDUgMjcuOTI1IEMgMzEuNzA1IDI4LjQyNSAzMS4yMDUgMzAuMTI1IDMwLjAwNSAzMS44MjUgQyAyNy45MDUgMzQuODI1IDI1LjIwNSAzNi4yMjUgMjQuMjA1IDM2LjcyNSBDIDIxLjMwNSAzOC4yMjUgMTguNjA1IDM4LjUyNSAxNy4wMDUgMzguNjI1IE0gMTcuNTA1IDM1LjcyNSBDIDE4LjIwNSAzNS43MjUgMTkuMzA1IDM1LjcyNSAyMC41MDUgMzUuMzI1IEMgMjMuMTA1IDM0LjYyNSAyNC44MDUgMzMuMTI1IDI1LjQwNSAzMi41MjUgQyAyNi42MDUgMzEuNDI1IDI3LjMwNSAzMC4zMjUgMjcuODA1IDI5LjYyNSBDIDI4LjMwNSAyOC45MjUgMjguNzA1IDI4LjIyNSAyOS4xMDUgMjcuMzI1IEMgMjkuNDA1IDI2LjUyNSAyOS45MDUgMjUuMDI1IDI5LjcwNSAyMi45MjUgTSAzMC4yMDUgMzUuNTI1IEwgMzEuNzA1IDM1LjUyNSBNIDMzLjIwNSAzMi42MjUgQyAzMy4zMDUgMzMuMDI1IDMzLjUwNSAzMy41MjUgMzMuODA1IDM0LjEyNSBDIDM0LjMwNSAzNS4wMjUgMzQuODA1IDM1LjUyNSAzNS40MDUgMzYuMDI1IEMgMzYuNDA1IDM2LjkyNSAzNy4zMDUgMzcuNTI1IDM3LjcwNSAzNy43MjUgQyAzOC4yMDUgMzguMDI1IDM4LjgwNSAzOC4zMjUgMzkuNzA1IDM4LjYyNSBDIDQwLjgwNSAzOC45MjUgNDEuODA1IDM4LjkyNSA0Mi41MDUgMzguODI1IE0gNDAuMzA1IDQyLjAyNSBDIDM5LjgwNSA0MS45MjUgMzkuMjA1IDQxLjYyNSAzOC40MDUgNDEuMzI1IEMgMzcuNTA1IDQxLjAyNSAzNy4wMDUgNDAuODI1IDM2LjQwNSA0MC40MjUgQyAzNS40MDUgMzkuODI1IDM1LjEwNSAzOS43MjUgMzQuMzA1IDM5LjMyNSBDIDMzLjYwNSAzOC45MjUgMzIuNjA1IDM4LjYyNSAzMS45MDUgMzguNDI1IEMgMzEuMDA1IDM4LjIyNSAzMC41MDUgMzguMTI1IDI5LjEwNSAzOC40MjUgQyAyOC42MDUgMzguNTI1IDI4LjIwNSAzOC43MjUgMjcuMjA1IDM5LjEyNSBDIDI1LjMwNSA0MC4wMjUgMjUuMjA1IDQwLjMyNSAyNC4wMDUgNDAuNzI1IEMgMjIuODA1IDQxLjIyNSAyMS43MDUgNDEuNDI1IDIxLjAwNSA0MS41MjUgTCAxOC44MDUgNDEuNzI1IE0gMjEuMzA1IDQ0LjYyNSBDIDIyLjEwNSA0NC42MjUgMjIuNzA1IDQ0LjUyNSAyMy4xMDUgNDQuNDI1IEMgMjMuODA1IDQ0LjIyNSAyNC40MDUgNDMuOTI1IDI0LjgwNSA0My43MjUgQyAyNS40MDUgNDMuNDI1IDI1LjQwNSA0My4zMjUgMjYuMzA1IDQyLjkyNSBMIDI3LjcwNSA0Mi4yMjUgQyAyOC40MDUgNDEuOTI1IDI4LjgwNSA0MS43MjUgMjkuMzA1IDQxLjYyNSBDIDI5LjcwNSA0MS41MjUgMjkuOTA1IDQxLjYyNSAzMC41MDUgNDEuNjI1IEMgMzEuMDA1IDQxLjYyNSAzMS40MDUgNDEuNzI1IDMxLjkwNSA0MS44MjUgQyAzMi4zMDUgNDEuOTI1IDMyLjcwNSA0Mi4xMjUgMzMuNDA1IDQyLjUyNSBMIDM0LjUwNSA0My4xMjUgTCAzNi4wMDUgNDMuOTI1IEMgMzYuNTA1IDQ0LjEyNSAzNy40MDUgNDQuNDI1IDM4LjUwNSA0NC42MjUgTSAyNC41MDUgNDcuMTI1IEMgMjUuMjA1IDQ2LjkyNSAyNS44MDUgNDYuNzI1IDI2LjIwNSA0Ni41MjUgQyAyNi43MDUgNDYuMzI1IDI3LjMwNSA0Ni4wMjUgMjguMDA1IDQ1LjUyNSBDIDI4LjcwNSA0NS4xMjUgMjguNzA1IDQ0LjkyNSAyOS4xMDUgNDQuODI1IEMgMjkuODA1IDQ0LjUyNSAzMC40MDUgNDQuNjI1IDMwLjcwNSA0NC43MjUgQyAzMS40MDUgNDQuODI1IDMxLjgwNSA0NS4wMjUgMzIuMTA1IDQ1LjEyNSBDIDMyLjQwNSA0NS4zMjUgMzIuNzA1IDQ1LjQyNSAzMy4zMDUgNDUuODI1IEwgMzQuNTA1IDQ2LjYyNSBMIDM1LjQwNSA0Ny4wMjUgTSAyOS43MDUgNDguMTI1IEwgMzEuNDA1IDQ4LjEyNSIvPiYjeGE7PC9zdmc+;shadow=0;glass=0;dashed=1;dashPattern=1 4;strokeColor=#000000;strokeWidth=2;fillColor=none;gradientColor=none;align=center;labelBackgroundColor=none;fontSize=14;opacity=20;textOpacity=30;" parent="1" vertex="1">
            <mxGeometry x="470" y="490" width="60" height="60" as="geometry" />
          </mxCell>
        </UserObject>
        <mxCell id="RnQfjQortNnoBOIsLoTC-42" value="components" style="locked=1;" parent="0" />
        <object label="" tags="steps 1 3" id="RnQfjQortNnoBOIsLoTC-43">
          <mxCell style="edgeStyle=orthogonalEdgeStyle;rounded=0;orthogonalLoop=1;jettySize=auto;html=1;exitX=1;exitY=0.25;exitDx=0;exitDy=0;entryX=0;entryY=0.25;entryDx=0;entryDy=0;strokeWidth=2;fontSize=14;" edge="1" parent="RnQfjQortNnoBOIsLoTC-42" source="RnQfjQortNnoBOIsLoTC-44" target="RnQfjQortNnoBOIsLoTC-55">
            <mxGeometry relative="1" as="geometry" />
          </mxCell>
        </object>
        <UserObject label="User" tags="steps 1 3 9" id="RnQfjQortNnoBOIsLoTC-44">
          <mxCell style="shape=image;editableCssRules=\.[haloColor,layerColor];imageAspect=0;aspect=fixed;verticalLabelPosition=bottom;verticalAlign=top;image=data:image/svg+xml,PHN2ZyB4bWxucz0iaHR0cDovL3d3dy53My5vcmcvMjAwMC9zdmciIHZpZXdCb3g9IjAgMCA2MC41IDYwLjUiPiYjeGE7ICA8c3R5bGUgdHlwZT0idGV4dC9jc3MiPi5oYWxvQ29sb3IgeyBmaWxsOiByZ2IoMCwgMCwgMCk7IH0gLmxheWVyQ29sb3IgeyBmaWxsOiByZ2IoMCwgMCwgMCk7IH0gPC9zdHlsZT4mI3hhOyAgPGNpcmNsZSBjeD0iMzAuMyIgY3k9IjMwLjMiIHI9IjMwLjMiIHN0eWxlPSIiIGZpbGw9IiNhMmEyYTIiIGNsYXNzPSJoYWxvQ29sb3IiLz4mI3hhOyAgPGNpcmNsZSBjbGFzcz0ibGF5ZXJDb2xvciIgY3g9IjMwLjMyNiIgY3k9IjMwLjM0NCIgcj0iMjUuMyIgc3R5bGU9IiIgZmlsbD0iI2EyYTJhMiIvPiYjeGE7ICA8cGF0aCBkPSJNIDM5LjUxNCAzOC4wMjMgTCAyMS45MTQgMzcuOTIzIEMgMTkuNTE0IDM3LjkyMyAxNy41MTQgMzkuODIzIDE3LjUxNCA0Mi4zMjMgTCAxNy41MTQgNDYuNzIzIEwgNDQuMDE0IDQ2LjkyMyBMIDQ0LjAxNCA0Mi41MjMgQyA0My45MTQgNDAuMDIzIDQxLjkxNCAzOC4wMjMgMzkuNTE0IDM4LjAyMyBaIE0gMzAuNjE0IDMzLjQyMyBDIDI0LjQxNCAzMy40MjMgMTkuNDE0IDI4LjMyMyAxOS40MTQgMjIuMjIzIEMgMTkuNDE0IDE2LjAyMyAyNC41MTQgMTEuMDIzIDMwLjYxNCAxMS4wMjMgQyAzNi44MTQgMTEuMDIzIDQxLjgxNCAxNi4wMjMgNDEuODE0IDIyLjIyMyBDIDQxLjgxNCAyOC40MjMgMzYuODE0IDMzLjQyMyAzMC42MTQgMzMuNDIzIFogTSAzMC42MTQgMTIuNDIzIEMgMjUuMjA2IDEyLjQzNCAyMC44MjUgMTYuODE1IDIwLjgxNCAyMi4yMjMgQyAyMC44MjUgMjcuNjMxIDI1LjIwNiAzMi4wMTIgMzAuNjE0IDMyLjAyMyBDIDM2LjAyMSAzMi4wMTIgNDAuNDAzIDI3LjYzMSA0MC40MTQgMjIuMjIzIEMgNDAuNDAzIDE2LjgxNSAzNi4wMjEgMTIuNDM0IDMwLjYxNCAxMi40MjMgWiIgZmlsbD0iI2ZmZiIvPiYjeGE7PC9zdmc+;shadow=0;glass=0;dashed=1;dashPattern=1 4;strokeColor=#000000;strokeWidth=1;fillColor=none;gradientColor=none;align=center;fontSize=14;" vertex="1" parent="RnQfjQortNnoBOIsLoTC-42">
            <mxGeometry x="149.9999999999999" y="330" width="60" height="60" as="geometry" />
          </mxCell>
        </UserObject>
        <object label="" tags="steps 2 9" id="RnQfjQortNnoBOIsLoTC-45">
          <mxCell style="edgeStyle=orthogonalEdgeStyle;rounded=0;orthogonalLoop=1;jettySize=auto;html=1;exitX=0;exitY=0.75;exitDx=0;exitDy=0;entryX=1;entryY=0.75;entryDx=0;entryDy=0;strokeWidth=2;fontSize=14;" edge="1" parent="RnQfjQortNnoBOIsLoTC-42" source="RnQfjQortNnoBOIsLoTC-48" target="RnQfjQortNnoBOIsLoTC-55">
            <mxGeometry relative="1" as="geometry" />
          </mxCell>
        </object>
        <object label="" tags="steps 6" id="RnQfjQortNnoBOIsLoTC-46">
          <mxCell style="edgeStyle=orthogonalEdgeStyle;rounded=0;orthogonalLoop=1;jettySize=auto;html=1;exitX=0.5;exitY=1;exitDx=0;exitDy=0;entryX=0.5;entryY=0;entryDx=0;entryDy=0;strokeWidth=2;fontSize=14;" edge="1" parent="RnQfjQortNnoBOIsLoTC-42" source="RnQfjQortNnoBOIsLoTC-48" target="RnQfjQortNnoBOIsLoTC-59">
            <mxGeometry relative="1" as="geometry" />
          </mxCell>
        </object>
        <object label="" tags="steps 7" id="RnQfjQortNnoBOIsLoTC-47">
          <mxCell style="edgeStyle=orthogonalEdgeStyle;rounded=0;orthogonalLoop=1;jettySize=auto;html=1;exitX=1;exitY=0.25;exitDx=0;exitDy=0;entryX=0;entryY=0.5;entryDx=0;entryDy=0;strokeWidth=2;fontSize=14;" edge="1" parent="RnQfjQortNnoBOIsLoTC-42" source="RnQfjQortNnoBOIsLoTC-48" target="RnQfjQortNnoBOIsLoTC-57">
            <mxGeometry relative="1" as="geometry" />
          </mxCell>
        </object>
        <object label="" tags="steps 8" id="RnQfjQortNnoBOIsLoTC-106">
          <mxCell style="edgeStyle=orthogonalEdgeStyle;rounded=0;orthogonalLoop=1;jettySize=auto;html=1;exitX=1;exitY=0.5;exitDx=0;exitDy=0;entryX=0.5;entryY=0;entryDx=0;entryDy=0;strokeWidth=2;fontSize=14;" edge="1" parent="RnQfjQortNnoBOIsLoTC-42" source="RnQfjQortNnoBOIsLoTC-48" target="RnQfjQortNnoBOIsLoTC-49">
            <mxGeometry relative="1" as="geometry" />
          </mxCell>
        </object>
        <object label="Public Gateway" tags="steps 1 2 5 6 7 8 9" id="RnQfjQortNnoBOIsLoTC-48">
          <mxCell style="shape=image;editableCssRules=\.[haloColor,layerColor];verticalLabelPosition=bottom;labelBackgroundColor=none;verticalAlign=top;aspect=fixed;imageAspect=0;image=data:image/svg+xml,PHN2ZyB4bWxucz0iaHR0cDovL3d3dy53My5vcmcvMjAwMC9zdmciIHZpZXdCb3g9IjAgMCA1OS41IDU5LjUiPiYjeGE7ICA8c3R5bGUgdHlwZT0idGV4dC9jc3MiPi5oYWxvQ29sb3IgeyBmaWxsOiByZ2IoMTEwLCAxOTAsIDc0KTsgfSAubGF5ZXJDb2xvciB7IGZpbGw6IHJnYigxMTAsIDE5MCwgNzQpOyB9IDwvc3R5bGU+JiN4YTsgIDxjaXJjbGUgY3g9IjI5LjgiIGN5PSIyOS44IiByPSIyOS44IiBjbGFzcz0iaGFsb0NvbG9yIiBzdHlsZT0iIiBmaWxsPSIjYTJhMmEyIi8+JiN4YTsgIDxjaXJjbGUgZmlsbD0iI2EyYTJhMiIgY2xhc3M9ImxheWVyQ29sb3IiIGN4PSIyOS43NyIgY3k9IjI5LjgyNSIgcj0iMjQuOCIgc3R5bGU9IiIvPiYjeGE7ICA8cGF0aCBkPSJNIDEzLjg4MSA0NC42ODggTCAxMy44ODEgMzguNTI2IEwgMTguOTk1IDQxLjYwNiBaIE0gMTMuODgxIDIwLjk2MiBMIDEzLjg4MSAxNC44MTIgTCAxOC45OTUgMTcuODkzIFogTSAxMy44ODEgMzIuODI1IEwgMTMuODgxIDI2LjY3IEwgMTguOTk1IDI5Ljc1IFogTSAzNC44OTEgMTYuNDk5IEwgMjEuNjc1IDE2LjUyNSBMIDIxLjY3OSAxOS4wMTUgTCAzMi40MDIgMTkgTCAzMi4zODIgMjguNjI1IEwgMjEuNjc5IDI4LjYxNSBMIDIxLjY3NyAzMS4xMDUgTCAzMi4zNzYgMzEuMTE1IEwgMzIuMzU2IDQwLjM0NCBMIDIxLjY0MSA0MC4zNTggTCAyMS42NDYgNDIuODQ4IEwgMzQuODQxIDQyLjgyOSBMIDM0Ljg2NSAzMS4xMjQgTCA0Mi4zOTIgMzEuMTMxIEwgNDIuMzk0IDI4LjY0MSBMIDM0Ljg3MSAyOC42MzUgWiBNIDQ1LjIyMiAzMy40NzkgTCA0NS4yMjIgMjUuODg5IEwgNTEuODgxIDI5LjY4OSBaIiBmaWxsPSIjZmZmIi8+JiN4YTs8L3N2Zz4=;spacingTop=-4;strokeWidth=2;fontSize=14;" vertex="1" parent="RnQfjQortNnoBOIsLoTC-42">
            <mxGeometry x="470" y="330" width="60" height="60" as="geometry" />
          </mxCell>
        </object>
        <object label="" tags="steps 9" id="RnQfjQortNnoBOIsLoTC-107">
          <mxCell style="edgeStyle=orthogonalEdgeStyle;rounded=0;orthogonalLoop=1;jettySize=auto;html=1;exitX=0;exitY=0.5;exitDx=0;exitDy=0;entryX=1;entryY=0.75;entryDx=0;entryDy=0;strokeWidth=2;fontSize=14;" edge="1" parent="RnQfjQortNnoBOIsLoTC-42" source="RnQfjQortNnoBOIsLoTC-49" target="RnQfjQortNnoBOIsLoTC-48">
            <mxGeometry relative="1" as="geometry">
              <Array as="points">
                <mxPoint x="590" y="440" />
                <mxPoint x="590" y="375" />
              </Array>
            </mxGeometry>
          </mxCell>
        </object>
        <object label="Resource" tags="steps 8 9" id="RnQfjQortNnoBOIsLoTC-49">
          <mxCell style="shape=image;editableCssRules=\.[haloColor,layerColor];verticalLabelPosition=bottom;labelBackgroundColor=none;verticalAlign=top;aspect=fixed;imageAspect=0;image=data:image/svg+xml,PHN2ZyB4bWxucz0iaHR0cDovL3d3dy53My5vcmcvMjAwMC9zdmciIHZpZXdCb3g9IjAgMCA1OS41IDU5LjUiPiYjeGE7ICA8c3R5bGUgdHlwZT0idGV4dC9jc3MiPi5oYWxvQ29sb3IgeyBmaWxsOiByZ2IoMzAsIDY4LCAxMTMpOyB9IC5sYXllckNvbG9yIHsgZmlsbDogcmdiKDMwLCA2OCwgMTEzKTsgfSA8L3N0eWxlPiYjeGE7ICA8Y2lyY2xlIGN4PSIyOS44IiBjeT0iMjkuOCIgcj0iMjkuOCIgY2xhc3M9ImhhbG9Db2xvciIgc3R5bGU9IiIgZmlsbD0iI2EyYTJhMiIvPiYjeGE7ICA8Y2lyY2xlIGZpbGw9IiNhMmEyYTIiIGNsYXNzPSJsYXllckNvbG9yIiBjeD0iMjkuNzciIGN5PSIyOS44MjUiIHI9IjI0LjgiIHN0eWxlPSIiLz4mI3hhOyAgPGcgZmlsbD0iI2ZmZiIgdHJhbnNmb3JtPSJtYXRyaXgoMSwgMCwgMCwgMSwgMC4wNzI2MTgsIC0wLjQxODc1KSI+JiN4YTsgICAgPHBhdGggZD0iTTE5LjYgNDUuM2gyMS45djEuM0gxOS42em0yMS44LTIwQTExLjIyIDExLjIyIDAgMCAwIDI5LjMgMTVjLTUuMS40LTkuMyA0LjMtMTAuMiA5LjRsLTEuMy0uMmMxLjEtNi44IDcuNS0xMS40IDE0LjMtMTAuMyA1LjcuOSAxMCA1LjYgMTAuNSAxMS4zbC0xLjIuMXoiLz4mI3hhOyAgICA8cGF0aCBkPSJNMTkuNiA0Ni42Yy02LjMgMC0xMS41LTUuMi0xMS41LTExLjVzNS4yLTExLjUgMTEuNS0xMS41YzIuOCAwIDUuNSAxIDcuNiAyLjlsLS44IDFjLTQuMi0zLjctMTAuNi0zLjQtMTQuNC44cy0zLjMgMTAuNy45IDE0LjRhMTAuMTQgMTAuMTQgMCAwIDAgNi44IDIuNmguMnYxLjNoLS4zem0yMS42IDBsLS4xLTEuM2guMWM1LjMtLjEgOS42LTQuNSA5LjUtOS45LS4xLTUuMS00LjItOS4zLTkuMy05LjV2LTEuM2M2IC42IDEwLjQgNiA5LjggMTIuMS0uNiA1LjMtNC44IDkuNS0xMCA5Ljl6Ii8+JiN4YTsgICAgPGNpcmNsZSBjeD0iMTcuOCIgY3k9IjMxLjgiIHI9IjMuOSIvPiYjeGE7ICAgIDxjaXJjbGUgY3g9IjQxLjYiIGN5PSIzNi40IiByPSI2LjYiLz4mI3hhOyAgICA8Y2lyY2xlIGN4PSIzMy41IiBjeT0iMjUuMyIgcj0iNC4xIi8+JiN4YTsgICAgPGNpcmNsZSBjeD0iMjkuNCIgY3k9IjM4LjkiIHI9IjQuMSIvPiYjeGE7ICAgIDxjaXJjbGUgY3g9IjI2LjMiIGN5PSIyMC43IiByPSIyLjEiLz4mI3hhOyAgICA8Y2lyY2xlIGN4PSIxOS42IiBjeT0iNDAuMSIgcj0iMi4xIi8+JiN4YTsgICAgPGNpcmNsZSBjeD0iMjYuMyIgY3k9IjMwLjkiIHI9IjIuMSIvPiYjeGE7ICAgIDxwYXRoIGQ9Ik0xOS4zIDQwLjZsLTEuOS04LjcuOC0uMiAxLjggNy45IDkuMy0xLjIgMTEuNS0yLjMtNy42LTEwLjUtNy4xLTQuNi40LS43IDcuMyA0LjYgOC41IDExLjctMTIuOCAyLjd6Ii8+JiN4YTsgICAgPHBhdGggZD0iTTI5LjggMzguMWwtLjgtLjMgMy42LTExLjMtNiA0LjgtLjYtLjcgOC4zLTYuNnptLTEyLjYtNi40NzRsLjQzLS42NzUgMTEuODk2IDcuNTctLjQzLjY3NXoiLz4mI3hhOyAgPC9nPiYjeGE7PC9zdmc+;strokeWidth=2;fontSize=14;" vertex="1" parent="RnQfjQortNnoBOIsLoTC-42">
            <mxGeometry x="650" y="410" width="60" height="60" as="geometry" />
          </mxCell>
        </object>
        <object label="" tags="steps 4" id="RnQfjQortNnoBOIsLoTC-50">
          <mxCell style="edgeStyle=orthogonalEdgeStyle;rounded=0;orthogonalLoop=1;jettySize=auto;html=1;exitX=0;exitY=0.75;exitDx=0;exitDy=0;entryX=0.75;entryY=0;entryDx=0;entryDy=0;strokeWidth=2;fontSize=14;" edge="1" parent="RnQfjQortNnoBOIsLoTC-42" source="RnQfjQortNnoBOIsLoTC-51" target="RnQfjQortNnoBOIsLoTC-55">
            <mxGeometry relative="1" as="geometry" />
          </mxCell>
        </object>
        <object label="External IDP" tags="steps 2 3 4" id="RnQfjQortNnoBOIsLoTC-51">
          <mxCell style="shape=image;editableCssRules=\.[haloColor,layerColor];verticalLabelPosition=bottom;labelBackgroundColor=none;verticalAlign=top;aspect=fixed;imageAspect=0;image=data:image/svg+xml,PHN2ZyB4bWxucz0iaHR0cDovL3d3dy53My5vcmcvMjAwMC9zdmciIHhtbG5zOnhsaW5rPSJodHRwOi8vd3d3LnczLm9yZy8xOTk5L3hsaW5rIiB2aWV3Qm94PSIwIDAgNjAgNjAiPiYjeGE7ICA8c3R5bGUgdHlwZT0idGV4dC9jc3MiPi5oYWxvQ29sb3IgeyBmaWxsOiByZ2IoMjI3LCAzNiwgMjcpOyB9IC5sYXllckNvbG9yIHsgZmlsbDogcmdiKDIyNywgMzYsIDI3KTsgfSA8L3N0eWxlPiYjeGE7ICA8c3ltYm9sIGlkPSJBIiB2aWV3Qm94PSItMjYuNSAtMjYuNSA1MyA1MyI+JiN4YTsgICAgPGNpcmNsZSBjeD0iMCIgY3k9IjAiIHI9IjI2LjUiIGZpbGw9IiNhMmEyYTIiIGNsYXNzPSJoYWxvQ29sb3IiLz4mI3hhOyAgPC9zeW1ib2w+JiN4YTsgIDxzeW1ib2wgaWQ9IkIiIHZpZXdCb3g9Ii0yNi41IC0yNi41IDUzIDUzIj4mI3hhOyAgICA8Y2lyY2xlIGN4PSIwIiBjeT0iMCIgcj0iMjYuNSIgZmlsbD0iI2EyYTJhMiIgY2xhc3M9ImxheWVyQ29sb3IiLz4mI3hhOyAgPC9zeW1ib2w+JiN4YTsgIDx1c2Ugd2lkdGg9IjUzIiBoZWlnaHQ9IjUzIiB0cmFuc2Zvcm09Im1hdHJpeCgxLjEzMjA3NjAyNTAwOTE1NTMsIDAsIDAsIDEuMTMyMDc2MDI1MDA5MTU1MywgLTAuMDAwMDE1MDAwMDAxNDQwMDU3NTMxLCAtMC4wMDAwMTUwMDAwMDE0NDAwNTc1MzEpIiBzdHlsZT0iIiB4bGluazpocmVmPSIjQSIvPiYjeGE7ICA8dXNlIHdpZHRoPSI1MyIgaGVpZ2h0PSI1MyIgdHJhbnNmb3JtPSJtYXRyaXgoMC45NDMzOTYwOTE0NjExODE2LCAwLCAwLCAwLjk0MzM5NjA5MTQ2MTE4MTYsIDUuMDAwMDAzODE0Njk3MjY2LCA1LjAwMDAwMzgxNDY5NzI2NikiIHN0eWxlPSIiIHhsaW5rOmhyZWY9IiNCIi8+JiN4YTsgIDxwYXRoIGQ9Ik0gMzMuMjQzIDE5LjI5NiBMIDI2Ljc1NyAxOS4yOTYgQyAyNS44NzIgMTkuMjkxIDI1LjE1MyAyMC4wMDkgMjUuMTU4IDIwLjg5NSBMIDI1LjE1OCAyMi40OTQgTCAzNC45MzEgMjIuNTgyIEwgMzQuOTMxIDIwLjk4MyBDIDM0Ljg0MiAyMC4wOTUgMzQuMTMxIDE5LjI5NiAzMy4yNDMgMTkuMjk2IFogTSAyOS45NTUgMTcuNjA4IEMgMjcuNjQ1IDE3LjYwOCAyNS43OCAxNS43NDIgMjUuNzggMTMuNDMyIEMgMjUuNzggMTEuMTIyIDI3LjY0NSA5LjI1NyAyOS45NTUgOS4yNTcgQyAzMi4yNjUgOS4yNTcgMzQuMTMxIDExLjEyMiAzNC4xMzEgMTMuNDMyIEMgMzQuMDQyIDE1LjgzMSAzMi4xNzYgMTcuNjA4IDI5Ljk1NSAxNy42MDggWiBNIDI5Ljk1NSA5Ljg3OSBDIDI4LjAwMSA5Ljg3OSAyNi4zMTQgMTEuNDc4IDI2LjMxNCAxMy41MjIgQyAyNi4zMTQgMTUuNTY0IDI3LjkxMyAxNy4xNjMgMjkuOTU1IDE3LjE2MyBDIDMxLjkxIDE3LjE2MyAzMy41OTggMTUuNTY0IDMzLjU5OCAxMy41MjIgQyAzMy41OTggMTEuNDc4IDMxLjkxIDkuODc5IDI5Ljk1NSA5Ljg3OSBaIE0gMzMuMzMyIDQ3LjQ1NyBMIDI2Ljg0NiA0Ny40NTcgQyAyNS45NjEgNDcuNDUzIDI1LjI0MiA0OC4xNzEgMjUuMjQ3IDQ5LjA1NiBMIDI1LjI0NyA1MC42NTUgTCAzNS4wMTkgNTAuNzQ0IEwgMzUuMDE5IDQ5LjE0NSBDIDM1LjAxOSA0OC4xNjggMzQuMjIgNDcuNDU3IDMzLjMzMiA0Ny40NTcgWiBNIDMwLjA0NSA0NS43NyBDIDI3LjczNSA0NS43NyAyNS44NjkgNDMuOTA0IDI1Ljg2OSA0MS41OTQgQyAyNS44NjkgMzkuMjg0IDI3LjczNSAzNy40MTkgMzAuMDQ1IDM3LjQxOSBDIDMyLjM1NSAzNy40MTkgMzQuMjIgMzkuMjg0IDM0LjIyIDQxLjU5NCBDIDM0LjIyIDQzLjkwNCAzMi4zNTUgNDUuNzcgMzAuMDQ1IDQ1Ljc3IFogTSAzMC4wNDUgMzguMDQxIEMgMjguMDkgMzguMDQxIDI2LjQwMiAzOS42NCAyNi40MDIgNDEuNjgzIEMgMjYuNDAyIDQzLjcyNiAyOC4wMDEgNDUuMzI1IDMwLjA0NSA0NS4zMjUgQyAzMS45OTkgNDUuMzI1IDMzLjY4NiA0My43MjYgMzMuNjg2IDQxLjY4MyBDIDMzLjY4NiAzOS42NCAzMi4wODcgMzguMDQxIDMwLjA0NSAzOC4wNDEgWiBNIDQ3LjgxMiAzNS44MiBMIDQxLjMyNyAzNS44MiBDIDQwLjQ0MSAzNS44MTUgMzkuNzIzIDM2LjUzNCAzOS43MjggMzcuNDE5IEwgMzkuNzI4IDM5LjAxOCBMIDQ5LjUgMzkuMTA3IEwgNDkuNSAzNy40MTkgQyA0OS41IDM2LjUzMSA0OC43ODkgMzUuODIgNDcuODEyIDM1LjgyIFogTSA0NC41MjUgMzQuMTMyIEMgNDIuMjE1IDM0LjEzMiA0MC4zNSAzMi4yNjYgNDAuMzUgMjkuOTU2IEMgNDAuMzUgMjcuNjQ2IDQyLjIxNSAyNS43ODEgNDQuNTI1IDI1Ljc4MSBDIDQ2LjgzNCAyNS43ODEgNDguNyAyNy42NDYgNDguNyAyOS45NTYgQyA0OC43IDMyLjI2NiA0Ni44MzQgMzQuMTMyIDQ0LjUyNSAzNC4xMzIgWiBNIDQ0LjUyNSAyNi4zMTQgQyA0Mi41NzEgMjYuMzE0IDQwLjg4MyAyNy45MTMgNDAuODgzIDI5Ljk1NiBDIDQwLjg4MyAzMiA0Mi40ODIgMzMuNTk5IDQ0LjUyNSAzMy41OTkgQyA0Ni40NzkgMzMuNTk5IDQ4LjE2NyAzMiA0OC4xNjcgMjkuOTU2IEMgNDguMTY3IDI4LjAwMiA0Ni41NjggMjYuMzE0IDQ0LjUyNSAyNi4zMTQgWiBNIDE4LjU4NSAzNS44MiBMIDEyLjA5OSAzNS44MiBDIDExLjIxNCAzNS44MTUgMTAuNDk1IDM2LjUzNCAxMC41IDM3LjQxOSBMIDEwLjUgMzkuMDE4IEwgMjAuMjcyIDM5LjEwNyBMIDIwLjI3MiAzNy40MTkgQyAyMC4xODQgMzYuNTMxIDE5LjQ3MyAzNS44MiAxOC41ODUgMzUuODIgWiBNIDE1LjI5NyAzNC4xMzIgQyAxMi45ODcgMzQuMTMyIDExLjEyMiAzMi4yNjYgMTEuMTIyIDI5Ljk1NiBDIDExLjEyMiAyNy42NDYgMTIuOTg3IDI1Ljc4MSAxNS4yOTcgMjUuNzgxIEMgMTcuNjA3IDI1Ljc4MSAxOS40NzMgMjcuNjQ2IDE5LjQ3MyAyOS45NTYgQyAxOS40NzMgMzIuMjY2IDE3LjYwNyAzNC4xMzIgMTUuMjk3IDM0LjEzMiBaIE0gMTUuMjk3IDI2LjQwMiBDIDEzLjM0MyAyNi40MDIgMTEuNjU1IDI4LjAwMiAxMS42NTUgMzAuMDQ1IEMgMTEuNjU1IDMyIDEzLjI1NCAzMy42ODggMTUuMjk3IDMzLjY4OCBDIDE3LjI1MiAzMy42ODggMTguOTQgMzIuMDg5IDE4Ljk0IDMwLjA0NSBDIDE4Ljk0IDI4LjAwMiAxNy4zNDEgMjYuMzE0IDE1LjI5NyAyNi40MDIgQyAxNS4yOTcgMjYuMzE0IDE1LjI5NyAyNi4zMTQgMTUuMjk3IDI2LjQwMiBaIiBmaWxsPSIjZmZmIi8+JiN4YTsgIDxjaXJjbGUgY3g9IjI5Ljk1NSIgY3k9IjM1LjE5OCIgcj0iMTQuNjU4IiBmaWxsPSJub25lIiBzdHJva2U9IiNmZmYiLz4mI3hhOyAgPGcgZmlsbD0iI2ZmZiIgdHJhbnNmb3JtPSJtYXRyaXgoMC44ODgzODEsIDAsIDAsIDAuODg4MzgxLCAzLjQ4MTc5MywgNy4yMTMyMjMpIj4mI3hhOyAgICA8Y2lyY2xlIGN4PSIxMy4zIiBjeT0iMjUuNiIgcj0iNCIvPiYjeGE7ICAgIDxjaXJjbGUgY3g9IjI5LjgiIGN5PSI3LjEiIHI9IjQiLz4mI3hhOyAgICA8Y2lyY2xlIGN4PSIyOS45IiBjeT0iMzguNyIgcj0iNCIvPiYjeGE7ICAgIDxjaXJjbGUgY3g9IjQ2LjIiIGN5PSIyNS42IiByPSI0Ii8+JiN4YTsgIDwvZz4mI3hhOzwvc3ZnPg==;strokeWidth=2;fontSize=14;" vertex="1" parent="RnQfjQortNnoBOIsLoTC-42">
            <mxGeometry x="470" y="170" width="60" height="60" as="geometry" />
          </mxCell>
        </object>
        <object label="" tags="steps 1 5" id="RnQfjQortNnoBOIsLoTC-52">
          <mxCell style="edgeStyle=orthogonalEdgeStyle;rounded=0;orthogonalLoop=1;jettySize=auto;html=1;exitX=1;exitY=0.25;exitDx=0;exitDy=0;entryX=0;entryY=0.25;entryDx=0;entryDy=0;strokeWidth=2;fontSize=14;" edge="1" parent="RnQfjQortNnoBOIsLoTC-42" source="RnQfjQortNnoBOIsLoTC-55" target="RnQfjQortNnoBOIsLoTC-48">
            <mxGeometry relative="1" as="geometry" />
          </mxCell>
        </object>
        <object label="" tags="steps 2 3" id="RnQfjQortNnoBOIsLoTC-53">
          <mxCell style="edgeStyle=orthogonalEdgeStyle;rounded=0;orthogonalLoop=1;jettySize=auto;html=1;exitX=0.25;exitY=0;exitDx=0;exitDy=0;entryX=0;entryY=0.25;entryDx=0;entryDy=0;strokeWidth=2;fontSize=14;" edge="1" parent="RnQfjQortNnoBOIsLoTC-42" source="RnQfjQortNnoBOIsLoTC-55" target="RnQfjQortNnoBOIsLoTC-51">
            <mxGeometry relative="1" as="geometry" />
          </mxCell>
        </object>
        <object label="" tags="steps 4" id="RnQfjQortNnoBOIsLoTC-54">
          <mxCell style="edgeStyle=orthogonalEdgeStyle;rounded=0;orthogonalLoop=1;jettySize=auto;html=1;exitX=0.25;exitY=1;exitDx=0;exitDy=0;entryX=0;entryY=0.75;entryDx=0;entryDy=0;strokeWidth=2;fontSize=14;" edge="1" parent="RnQfjQortNnoBOIsLoTC-42" source="RnQfjQortNnoBOIsLoTC-55" target="RnQfjQortNnoBOIsLoTC-59">
            <mxGeometry relative="1" as="geometry" />
          </mxCell>
        </object>
        <object label="" tags="steps 9" id="RnQfjQortNnoBOIsLoTC-108">
          <mxCell style="edgeStyle=orthogonalEdgeStyle;rounded=0;orthogonalLoop=1;jettySize=auto;html=1;exitX=0;exitY=0.75;exitDx=0;exitDy=0;entryX=1;entryY=0.75;entryDx=0;entryDy=0;strokeWidth=2;fontSize=14;" edge="1" parent="RnQfjQortNnoBOIsLoTC-42" source="RnQfjQortNnoBOIsLoTC-55" target="RnQfjQortNnoBOIsLoTC-44">
            <mxGeometry relative="1" as="geometry" />
          </mxCell>
        </object>
        <UserObject label="Web Client" tags="steps 1 2 3 4 5 9" id="RnQfjQortNnoBOIsLoTC-55">
          <mxCell style="shape=image;editableCssRules=\.[haloColor,layerColor];imageAspect=0;aspect=fixed;verticalLabelPosition=bottom;verticalAlign=top;fontSize=14;fontColor=#000000;align=center;image=data:image/svg+xml,PHN2ZyB4bWxucz0iaHR0cDovL3d3dy53My5vcmcvMjAwMC9zdmciIHdpZHRoPSIxMDAuMDMyIiBoZWlnaHQ9IjEwMC4wMzIiIHZpZXdCb3g9IjAgMCA3NSA3NSIgZmlsbD0ibm9uZSIgZmlsbC1ydWxlPSJldmVub2RkIiBvdmVyZmxvdz0idmlzaWJsZSIgc3Ryb2tlLWxpbmVjYXA9InNxdWFyZSIgc3Ryb2tlLW1pdGVybGltaXQ9IjMiIGNvbG9yLWludGVycG9sYXRpb24tZmlsdGVycz0ic1JHQiI+JiN4YTsgIDxzdHlsZSB0eXBlPSJ0ZXh0L2NzcyI+LmhhbG9Db2xvciB7IGZpbGw6IHJnYigyNTEsIDE3MSwgMjQpOyB9IC5sYXllckNvbG9yIHsgZmlsbDogcmdiKDI1MSwgMTcxLCAyNCk7IH0gPC9zdHlsZT4mI3hhOyAgPGNpcmNsZSByPSIzNy41IiBjeD0iMzcuNSIgY3k9IjM3LjUiIGNvbG9yLWludGVycG9sYXRpb24tZmlsdGVycz0ic1JHQiIgZmlsbD0iI2EyYTJhMiIgY2xhc3M9ImhhbG9Db2xvciIvPiYjeGE7ICA8Y2lyY2xlIGZpbGw9IiNhMmEyYTIiIHI9IjMyLjUiIGN4PSIzNy40NDkiIGN5PSIzNy41MDMiIGNvbG9yLWludGVycG9sYXRpb24tZmlsdGVycz0ic1JHQiIgc3R5bGU9IiIgY2xhc3M9ImxheWVyQ29sb3IiLz4mI3hhOyAgPHBhdGggZD0iTSAxOC4wODMgMjAuNzUyIEwgNTcuODgzIDIwLjc1MiBMIDU3Ljg4MyA1MS45NTIgTCAxOC4wODMgNTEuOTUyIFoiIGZpbGw9IiNmZmYiLz4mI3hhOyAgPHBhdGggZD0iTSAyMS4xODMgMjMuODUyIEwgNTQuODgzIDIzLjg1MiBMIDU0Ljg4MyA0Ny45NTIgTCAyMS4xODMgNDcuOTUyIFoiIHN0eWxlPSIiIGZpbGw9IiNhMmEyYTIiIGNsYXNzPSJsYXllckNvbG9yIi8+JiN4YTsgIDxwYXRoIGQ9Ik0gMjEuMTgzIDUyLjg1MiBMIDU0Ljg4MyA1Mi44NTIgTCA1NC44ODMgNTUuNzUyIEwgMjEuMTgzIDU1Ljc1MiBaIiBmaWxsPSIjZmZmIi8+JiN4YTs8L3N2Zz4=;strokeWidth=2;" vertex="1" parent="RnQfjQortNnoBOIsLoTC-42">
            <mxGeometry x="310" y="330" width="60" height="60" as="geometry" />
          </mxCell>
        </UserObject>
        <object label="Authorization" tags="steps 7" id="RnQfjQortNnoBOIsLoTC-57">
          <mxCell style="shape=image;editableCssRules=\.[haloColor,layerColor];verticalLabelPosition=bottom;labelBackgroundColor=none;verticalAlign=top;aspect=fixed;imageAspect=0;image=data:image/svg+xml,PHN2ZyB4bWxucz0iaHR0cDovL3d3dy53My5vcmcvMjAwMC9zdmciIHZpZXdCb3g9IjAgMCA1OS44IDU5LjgiPiYjeGE7ICA8c3R5bGUgdHlwZT0idGV4dC9jc3MiPi5oYWxvQ29sb3IgeyBmaWxsOiByZ2IoMjI3LCAzNiwgMjcpOyB9IC5sYXllckNvbG9yIHsgZmlsbDogcmdiKDIyNywgMzYsIDI3KTsgfSA8L3N0eWxlPiYjeGE7ICA8Y2lyY2xlIGN4PSIyOS45IiBjeT0iMjkuOSIgcj0iMjkuOSIgZmlsbD0iI2EyYTJhMiIgY2xhc3M9ImhhbG9Db2xvciIvPiYjeGE7ICA8Y2lyY2xlIGN4PSIyOS45IiBjeT0iMjkuOSIgcj0iMjUiIGZpbGw9IiNhMmEyYTIiIGNsYXNzPSJsYXllckNvbG9yIi8+JiN4YTsgIDxnIGZpbGw9IiNmZmYiPiYjeGE7ICAgIDxwYXRoIGQ9Ik0xMy4zIDQ1LjJWMTQuN2MwLS40LjQtLjYuNy0uNnMuNS4zLjYuNnYyOC45bDEwLjEtM1YxOGMwLS40LjQtLjYuNy0uNnMuNS4zLjYuNnYyMy40bC0xMi43IDMuOHoiLz4mI3hhOyAgICA8cGF0aCBkPSJNMTYuNSA0NGMtLjIgMC0uNC0uMi0uNC0uNFYxNS44YzAtLjIuMy0uNC41LS40cy4zLjIuNC40djI3LjhjMCAuMi0uMi40LS41LjR6bTMtLjljLS4yIDAtLjQtLjItLjQtLjRWMTYuNWMwLS4yLjMtLjQuNS0uNHMuMy4yLjQuNHYyNi4yYzAgLjItLjIuNC0uNS40em0yLjktMWMtLjIgMC0uNC0uMi0uNC0uNFYxNy4yYzAtLjIuMy0uNC41LS40cy4zLjIuNC40djI0LjZjLS4xLjItLjMuNC0uNS4zeiIvPiYjeGE7ICAgIDxwYXRoIGQ9Ik0yNS4xIDIxLjVsLTExLjQtMy4xLjMtLjcgMTEuMyAzLjF6Ii8+JiN4YTsgICAgPHBhdGggZD0iTTExLjkgMTQuMWgyLjZ2MzEuN2gtMi42em0zNC43IDMxLjFMMzQgNDEuNVYxOC4xYzAtLjQuNC0uNi43LS42cy41LjMuNi42djIyLjZsMTAuMSAzdi0yOWMwLS40LjQtLjYuNy0uNnMuNS4zLjYuNmwtLjEgMzAuNXoiLz4mI3hhOyAgICA8cGF0aCBkPSJNNDMuMyA0NGMtLjIgMC0uNC0uMi0uNC0uNFYxNS44YzAtLjIuMy0uNC41LS40cy4zLjIuNC40djI3LjhjLS4xLjItLjMuNC0uNS40em0tMy0uOWMtLjIgMC0uNC0uMi0uNC0uNFYxNi41YzAtLjIuMy0uNC41LS40cy4zLjIuNC40djI2LjNjLS4yLjItLjMuMy0uNS4zem0tMi45LTFjLS4yIDAtLjQtLjItLjQtLjRWMTcuMmMwLS4yLjMtLjQuNS0uNHMuMy4yLjQuNHYyNC42YS41NS41NSAwIDAgMS0uNS4zeiIvPiYjeGE7ICAgIDxwYXRoIGQ9Ik0zNC43IDIxLjVsLS4yLS43IDExLjMtMy4xLjMuN3oiLz4mI3hhOyAgICA8cGF0aCBkPSJNNDUuMyAxNGgyLjZ2MzEuN2gtMi42eiIvPiYjeGE7ICA8L2c+JiN4YTs8L3N2Zz4=;strokeColor=#000000;fillColor=none;gradientColor=none;fontSize=14;align=center;strokeWidth=2;" vertex="1" parent="RnQfjQortNnoBOIsLoTC-42">
            <mxGeometry x="650" y="250.00000000000003" width="60" height="60" as="geometry" />
          </mxCell>
        </object>
        <object label="" tags="steps 5" id="RnQfjQortNnoBOIsLoTC-58">
          <mxCell style="edgeStyle=orthogonalEdgeStyle;rounded=0;orthogonalLoop=1;jettySize=auto;html=1;exitX=0;exitY=0.25;exitDx=0;exitDy=0;entryX=0.75;entryY=1;entryDx=0;entryDy=0;strokeWidth=2;fontSize=14;" edge="1" parent="RnQfjQortNnoBOIsLoTC-42" source="RnQfjQortNnoBOIsLoTC-59" target="RnQfjQortNnoBOIsLoTC-55">
            <mxGeometry relative="1" as="geometry" />
          </mxCell>
        </object>
        <UserObject label="OAuth Provider" tags="steps 4 5 6" id="RnQfjQortNnoBOIsLoTC-59">
          <mxCell style="shape=image;editableCssRules=\.[haloColor,layerColor];imageAspect=0;aspect=fixed;verticalLabelPosition=bottom;verticalAlign=top;image=data:image/svg+xml,PHN2ZyB4bWxucz0iaHR0cDovL3d3dy53My5vcmcvMjAwMC9zdmciIHZpZXdCb3g9IjAgMCA1OS41IDU5LjUiPiYjeGE7ICA8c3R5bGUgdHlwZT0idGV4dC9jc3MiPi5oYWxvQ29sb3IgeyBmaWxsOiByZ2IoMjI3LCAzNiwgMjcpOyB9IC5sYXllckNvbG9yIHsgZmlsbDogcmdiKDIyNywgMzYsIDI3KTsgfSA8L3N0eWxlPiYjeGE7ICA8Y2lyY2xlIGN4PSIyOS44IiBjeT0iMjkuOCIgcj0iMjkuOCIgY2xhc3M9ImhhbG9Db2xvciIgc3R5bGU9IiIgZmlsbD0iI2EyYTJhMiIvPiYjeGE7ICA8Y2lyY2xlIGZpbGw9IiNhMmEyYTIiIGNsYXNzPSJsYXllckNvbG9yIiBjeD0iMjkuNzciIGN5PSIyOS44MjUiIHI9IjI0LjgiIHN0eWxlPSIiLz4mI3hhOyAgPHBhdGggaWQ9InN2Z18yIiBzdHJva2Utd2lkdGg9IjEuMzIiIHN0cm9rZT0iI2ZmZiIgZmlsbD0ibm9uZSIgc3Ryb2tlLW1pdGVybGltaXQ9IjEwIiBkPSJNIDE3LjQwNSAyNC4wMjUgQyAxNy4zMDUgMjMuMTI1IDE3LjMwNSAyMS43MjUgMTcuODA1IDIwLjAyNSBDIDE4LjMwNSAxOC4xMjUgMTkuMjA1IDE2LjkyNSAxOS43MDUgMTYuMjI1IEMgMjAuMjA1IDE1LjUyNSAyMS4zMDUgMTQuMDI1IDIzLjQwNSAxMi44MjUgQyAyNS4xMDUgMTEuOTI1IDI2LjYwNSAxMS42MjUgMjcuMzA1IDExLjQyNSBDIDI4LjgwNSAxMS4xMjUgMzAuMDA1IDExLjIyNSAzMC43MDUgMTEuMjI1IEMgMzIuNTA1IDExLjQyNSAzMy45MDUgMTEuOTI1IDM0LjIwNSAxMi4wMjUgQyAzNC42MDUgMTIuMjI1IDM2LjIwNSAxMi44MjUgMzcuODA1IDE0LjIyNSBDIDM5LjEwNSAxNS40MjUgMzkuODA1IDE2LjUyNSA0MC4wMDUgMTYuODI1IEMgNDAuOTA1IDE4LjIyNSA0MS4yMDUgMTkuNTI1IDQxLjMwNSAxOS43MjUgQyA0MS41MDUgMjAuNTI1IDQxLjYwNSAyMS4xMjUgNDEuNjA1IDIxLjYyNSBMIDQxLjgwNSAzMC4yMjUgTSAxNy4wMDUgMjYuNzI1IEMgMTcuMzA1IDI2LjcyNSAxNy45MDUgMjYuODI1IDE4LjYwNSAyNi40MjUgQyAxOS4zMDUgMjYuMTI1IDE5LjcwNSAyNS41MjUgMTkuODA1IDI1LjMyNSBDIDE5LjkwNSAyNS4yMjUgMjAuMTA1IDI0LjgyNSAyMC40MDUgMjMuNTI1IEMgMjAuNjA1IDIyLjQyNSAyMC41MDUgMjIuMTI1IDIwLjcwNSAyMS4zMjUgQyAyMC43MDUgMjEuMTI1IDIwLjkwNSAyMC4xMjUgMjEuMzA1IDE5LjIyNSBDIDIyLjIwNSAxNy40MjUgMjMuNzA1IDE2LjMyNSAyNC41MDUgMTUuODI1IEMgMjUuMTA1IDE1LjQyNSAyNS44MDUgMTQuOTI1IDI3LjAwNSAxNC42MjUgQyAyNy40MDUgMTQuNTI1IDI5LjUwNSAxMy45MjUgMzIuMDA1IDE0LjUyNSBDIDMyLjQwNSAxNC42MjUgMzMuNTA1IDE0LjkyNSAzNC44MDUgMTUuNzI1IEMgMzUuOTA1IDE2LjQyNSAzNi42MDUgMTcuMjI1IDM3LjEwNSAxNy44MjUgQyAzNy43MDUgMTguNTI1IDM4LjIwNSAxOS4xMjUgMzguNjA1IDIwLjEyNSBDIDM4LjgwNSAyMC43MjUgMzguOTA1IDIxLjEyNSAzOC45MDUgMjEuNTI1IEMgMzkuMTA1IDIyLjkyNSAzOS4xMDUgMjYuNDI1IDM5LjEwNSAyOS4zMjUgQyAzOS4xMDUgMjkuNjI1IDM4LjkwNSAzMC4zMjUgMzkuMzA1IDMwLjkyNSBDIDM5LjYwNSAzMS41MjUgNDAuMDA1IDMxLjgyNSA0MC40MDUgMzIuMDI1IEMgNDEuMTA1IDMyLjUyNSA0MS45MDUgMzIuNzI1IDQyLjQwNSAzMi44MjUgTSAxNy4wMDUgMjkuNzI1IEMgMTcuNDA1IDI5LjcyNSAxOC4wMDUgMjkuODI1IDE4LjgwNSAyOS42MjUgQyAxOS44MDUgMjkuNDI1IDIwLjUwNSAyOC45MjUgMjAuOTA1IDI4LjcyNSBDIDIxLjYyNiAyOC4zMDMgMjIuMjQxIDI3LjcyMSAyMi43MDUgMjcuMDI1IEMgMjMuMTA1IDI2LjQyNSAyMy4yMDUgMjUuNTI1IDIzLjQwNSAyMy44MjUgQyAyMy42MDUgMjIuMTI1IDIzLjYwNSAyMS44MjUgMjMuOTA1IDIxLjEyNSBDIDI0LjAwNSAyMC45MjUgMjQuMzA1IDIwLjEyNSAyNS4xMDUgMTkuMzI1IEMgMjUuNzA1IDE4LjYyNSAyNi40MDUgMTguMjI1IDI2LjcwNSAxOC4xMjUgQyAyNy41MDUgMTcuNjI1IDI4LjMwNSAxNy41MjUgMjguNTA1IDE3LjQyNSBDIDI5LjUwNSAxNy4yMjUgMzAuMzA1IDE3LjMyNSAzMC43MDUgMTcuNDI1IEMgMzEuMjA1IDE3LjUyNSAzMS44MDUgMTcuNjI1IDMyLjUwNSAxNy45MjUgQyAzMy4yMDUgMTguMjI1IDMzLjYwNSAxOC42MjUgMzQuMDA1IDE5LjAyNSBDIDM0LjQwNSAxOS40MjUgMzQuOTA1IDE5LjgyNSAzNS4zMDUgMjAuNjI1IEMgMzUuNzA1IDIxLjQyNSAzNS45MDUgMjIuMTI1IDM1LjkwNSAyMi40MjUgQyAzNi4wMDUgMjIuOTI1IDM2LjAwNSAyMy4zMjUgMzYuMDA1IDIzLjUyNSBDIDM1LjkwNSAyNi4wMjUgMzYuMjA1IDI4LjUyNSAzNi4xMDUgMzEuMDI1IEMgMzYuMTA1IDMxLjIyNSAzNi4xMDUgMzEuNzI1IDM2LjMwNSAzMi4yMjUgQyAzNi41MDUgMzIuODI1IDM3LjIwNSAzMy41MjUgMzcuODA1IDM0LjAyNSBDIDM4LjQwNSAzNC42MjUgMzkuMTA1IDM0LjkyNSAzOS4zMDUgMzUuMDI1IEMgMzkuODA1IDM1LjMyNSA0MC45MDUgMzUuNjI1IDQyLjQwNSAzNS43MjUgTSAxNy4wMDUgMzIuNzI1IEMgMTcuNDA1IDMyLjgyNSAxNy45MDUgMzIuOTI1IDE4LjYwNSAzMi44MjUgQyAxOS41MDUgMzIuNzI1IDIwLjIwNSAzMi40MjUgMjAuODA1IDMyLjAyNSBDIDIxLjEwNSAzMS45MjUgMjEuNzA1IDMxLjUyNSAyMi40MDUgMzEuMDI1IEMgMjIuODA1IDMwLjcyNSAyMy44MDUgMjkuOTI1IDI0LjcwNSAyOC42MjUgQyAyNS4zMDUgMjcuODI1IDI1LjUwNSAyNy40MjUgMjUuODA1IDI2LjcyNSBDIDI1LjkwNSAyNi42MjUgMjYuMDA1IDI2LjAyNSAyNi4xMDUgMjQuODI1IEMgMjYuMjA1IDI0LjEyNSAyNi4zMDUgMjMuNjI1IDI2LjUwNSAyMy4wMjUgQyAyNi43MDUgMjIuMjI1IDI2LjgwNSAyMi4wMjUgMjYuOTA1IDIxLjgyNSBDIDI3LjIwNSAyMS40MjUgMjcuNTA1IDIxLjIyNSAyNy45MDUgMjAuOTI1IEMgMjguNDA1IDIwLjYyNSAyOC44MDUgMjAuMzI1IDI5LjQwNSAyMC4yMjUgQyAyOS45MDUgMjAuMTI1IDMwLjMwNSAyMC4zMjUgMzAuNTA1IDIwLjMyNSBDIDMwLjYwNSAyMC4zMjUgMzEuMTA1IDIwLjUyNSAzMS41MDUgMjAuOTI1IEMgMzEuNjA1IDIxLjAyNSAzMi4xMDUgMjEuNDI1IDMyLjQwNSAyMi4wMjUgQyAzMi43MDUgMjIuNzI1IDMyLjcwNSAyMy4zMjUgMzIuNTA1IDI0LjUyNSBDIDMyLjMwNSAyNi4xMjUgMzIuMjA1IDI2LjkyNSAzMS45MDUgMjcuOTI1IEMgMzEuNzA1IDI4LjQyNSAzMS4yMDUgMzAuMTI1IDMwLjAwNSAzMS44MjUgQyAyNy45MDUgMzQuODI1IDI1LjIwNSAzNi4yMjUgMjQuMjA1IDM2LjcyNSBDIDIxLjMwNSAzOC4yMjUgMTguNjA1IDM4LjUyNSAxNy4wMDUgMzguNjI1IE0gMTcuNTA1IDM1LjcyNSBDIDE4LjIwNSAzNS43MjUgMTkuMzA1IDM1LjcyNSAyMC41MDUgMzUuMzI1IEMgMjMuMTA1IDM0LjYyNSAyNC44MDUgMzMuMTI1IDI1LjQwNSAzMi41MjUgQyAyNi42MDUgMzEuNDI1IDI3LjMwNSAzMC4zMjUgMjcuODA1IDI5LjYyNSBDIDI4LjMwNSAyOC45MjUgMjguNzA1IDI4LjIyNSAyOS4xMDUgMjcuMzI1IEMgMjkuNDA1IDI2LjUyNSAyOS45MDUgMjUuMDI1IDI5LjcwNSAyMi45MjUgTSAzMC4yMDUgMzUuNTI1IEwgMzEuNzA1IDM1LjUyNSBNIDMzLjIwNSAzMi42MjUgQyAzMy4zMDUgMzMuMDI1IDMzLjUwNSAzMy41MjUgMzMuODA1IDM0LjEyNSBDIDM0LjMwNSAzNS4wMjUgMzQuODA1IDM1LjUyNSAzNS40MDUgMzYuMDI1IEMgMzYuNDA1IDM2LjkyNSAzNy4zMDUgMzcuNTI1IDM3LjcwNSAzNy43MjUgQyAzOC4yMDUgMzguMDI1IDM4LjgwNSAzOC4zMjUgMzkuNzA1IDM4LjYyNSBDIDQwLjgwNSAzOC45MjUgNDEuODA1IDM4LjkyNSA0Mi41MDUgMzguODI1IE0gNDAuMzA1IDQyLjAyNSBDIDM5LjgwNSA0MS45MjUgMzkuMjA1IDQxLjYyNSAzOC40MDUgNDEuMzI1IEMgMzcuNTA1IDQxLjAyNSAzNy4wMDUgNDAuODI1IDM2LjQwNSA0MC40MjUgQyAzNS40MDUgMzkuODI1IDM1LjEwNSAzOS43MjUgMzQuMzA1IDM5LjMyNSBDIDMzLjYwNSAzOC45MjUgMzIuNjA1IDM4LjYyNSAzMS45MDUgMzguNDI1IEMgMzEuMDA1IDM4LjIyNSAzMC41MDUgMzguMTI1IDI5LjEwNSAzOC40MjUgQyAyOC42MDUgMzguNTI1IDI4LjIwNSAzOC43MjUgMjcuMjA1IDM5LjEyNSBDIDI1LjMwNSA0MC4wMjUgMjUuMjA1IDQwLjMyNSAyNC4wMDUgNDAuNzI1IEMgMjIuODA1IDQxLjIyNSAyMS43MDUgNDEuNDI1IDIxLjAwNSA0MS41MjUgTCAxOC44MDUgNDEuNzI1IE0gMjEuMzA1IDQ0LjYyNSBDIDIyLjEwNSA0NC42MjUgMjIuNzA1IDQ0LjUyNSAyMy4xMDUgNDQuNDI1IEMgMjMuODA1IDQ0LjIyNSAyNC40MDUgNDMuOTI1IDI0LjgwNSA0My43MjUgQyAyNS40MDUgNDMuNDI1IDI1LjQwNSA0My4zMjUgMjYuMzA1IDQyLjkyNSBMIDI3LjcwNSA0Mi4yMjUgQyAyOC40MDUgNDEuOTI1IDI4LjgwNSA0MS43MjUgMjkuMzA1IDQxLjYyNSBDIDI5LjcwNSA0MS41MjUgMjkuOTA1IDQxLjYyNSAzMC41MDUgNDEuNjI1IEMgMzEuMDA1IDQxLjYyNSAzMS40MDUgNDEuNzI1IDMxLjkwNSA0MS44MjUgQyAzMi4zMDUgNDEuOTI1IDMyLjcwNSA0Mi4xMjUgMzMuNDA1IDQyLjUyNSBMIDM0LjUwNSA0My4xMjUgTCAzNi4wMDUgNDMuOTI1IEMgMzYuNTA1IDQ0LjEyNSAzNy40MDUgNDQuNDI1IDM4LjUwNSA0NC42MjUgTSAyNC41MDUgNDcuMTI1IEMgMjUuMjA1IDQ2LjkyNSAyNS44MDUgNDYuNzI1IDI2LjIwNSA0Ni41MjUgQyAyNi43MDUgNDYuMzI1IDI3LjMwNSA0Ni4wMjUgMjguMDA1IDQ1LjUyNSBDIDI4LjcwNSA0NS4xMjUgMjguNzA1IDQ0LjkyNSAyOS4xMDUgNDQuODI1IEMgMjkuODA1IDQ0LjUyNSAzMC40MDUgNDQuNjI1IDMwLjcwNSA0NC43MjUgQyAzMS40MDUgNDQuODI1IDMxLjgwNSA0NS4wMjUgMzIuMTA1IDQ1LjEyNSBDIDMyLjQwNSA0NS4zMjUgMzIuNzA1IDQ1LjQyNSAzMy4zMDUgNDUuODI1IEwgMzQuNTA1IDQ2LjYyNSBMIDM1LjQwNSA0Ny4wMjUgTSAyOS43MDUgNDguMTI1IEwgMzEuNDA1IDQ4LjEyNSIvPiYjeGE7PC9zdmc+;shadow=0;glass=0;dashed=1;dashPattern=1 4;strokeColor=#000000;strokeWidth=2;fillColor=none;gradientColor=none;align=center;labelBackgroundColor=none;fontSize=14;" vertex="1" parent="RnQfjQortNnoBOIsLoTC-42">
            <mxGeometry x="470" y="490" width="60" height="60" as="geometry" />
          </mxCell>
        </UserObject>
        <mxCell id="RnQfjQortNnoBOIsLoTC-100" value="text-links" style="" parent="0" />
        <UserObject label="" link="data:action/json,{&quot;actions&quot;:[{&quot;hide&quot;:{&quot;tags&quot;:[&quot;steps&quot;]}},{&quot;hide&quot;:{&quot;tags&quot;:[&quot;toggles&quot;]}},{&quot;show&quot;:{&quot;tags&quot;:[&quot;1&quot;]}},{&quot;show&quot;:{&quot;tags&quot;:[&quot;toggle1&quot;]}}]}" id="RnQfjQortNnoBOIsLoTC-60">
          <mxCell style="group" vertex="1" connectable="0" parent="RnQfjQortNnoBOIsLoTC-100">
            <mxGeometry x="-230" y="90" width="290" height="20" as="geometry" />
          </mxCell>
        </UserObject>
        <object label="" tags="unchecked" id="RnQfjQortNnoBOIsLoTC-61">
          <mxCell style="shape=image;editableCssRules=\.[haloColor,layerColor];imageAspect=0;aspect=fixed;verticalLabelPosition=bottom;verticalAlign=top;strokeColor=#000000;fillColor=#000000;image=data:image/svg+xml,PHN2ZyB4bWxucz0iaHR0cDovL3d3dy53My5vcmcvMjAwMC9zdmciIHhtbG5zOmJ4PSJodHRwczovL2JveHktc3ZnLmNvbSIgdmlld0JveD0iMCAwIDIwIDIwIj4mI3hhOyAgPHN0eWxlIHR5cGU9InRleHQvY3NzIj4mI3hhOwkuaGFsb0NvbG9ye3N0cm9rZTojMDAwMDAwO30mI3hhOwkubGF5ZXJDb2xvcntmaWxsOiNGRkZGRkY7fSYjeGE7CS5zdHJva2VDb2xvcntzdHJva2U6IzAwMDAwMDtmaWxsOiMwMDAwMDA7fSYjeGE7CTwvc3R5bGU+JiN4YTsgIDxjaXJjbGUgc3R5bGU9InN0cm9rZTogcmdiKDAsIDAsIDApOyIgY3g9IjkuOTkyIiBjeT0iMTAiIHI9IjkiIGNsYXNzPSJsYXllckNvbG9yIiBmaWxsPSIjRkZGRkZGIi8+JiN4YTsgIDxjaXJjbGUgc3R5bGU9ImZpbGwtcnVsZTogZXZlbm9kZDsgc3Ryb2tlLXdpZHRoOiAycHg7IGZpbGw6IG5vbmU7IiBjeD0iOS45ODYiIGN5PSI5Ljk5NiIgcj0iOSIgY2xhc3M9ImhhbG9Db2xvciIgYng6b3JpZ2luPSIwLjUgMC41MDAwMjgiLz4mI3hhOzwvc3ZnPg==;align=left;" vertex="1" parent="RnQfjQortNnoBOIsLoTC-60">
            <mxGeometry width="20" height="20" as="geometry" />
          </mxCell>
        </object>
        <object label="" tags="toggles toggle1" id="RnQfjQortNnoBOIsLoTC-62">
          <mxCell style="shape=image;editableCssRules=\.[layerColor,haloColor,strokeColor];imageAspect=0;aspect=fixed;verticalLabelPosition=bottom;verticalAlign=top;strokeColor=#000000;fillColor=#000000;image=data:image/svg+xml,PHN2ZyB4bWxucz0iaHR0cDovL3d3dy53My5vcmcvMjAwMC9zdmciIHhtbG5zOmJ4PSJodHRwczovL2JveHktc3ZnLmNvbSIgdmlld0JveD0iMCAwIDIwIDIwIj4mI3hhOyAgPHN0eWxlIHR5cGU9InRleHQvY3NzIj4uaGFsb0NvbG9yIHsgc3Ryb2tlOiByZ2IoMCwgMCwgMCk7IH0gLmxheWVyQ29sb3IgeyBmaWxsOiByZ2IoMjU1LCAyNTUsIDI1NSk7IH0gLnN0cm9rZUNvbG9yIHsgc3Ryb2tlOiByZ2IoMCwgMCwgMCk7IH0gPC9zdHlsZT4mI3hhOyAgPGNpcmNsZSBzdHlsZT0ic3Ryb2tlOiByZ2IoMCwgMCwgMCk7IiBjeD0iOS45OTIiIGN5PSIxMCIgcj0iOSIgY2xhc3M9ImxheWVyQ29sb3IiIGZpbGw9IiNGRkZGRkYiLz4mI3hhOyAgPGNpcmNsZSBzdHlsZT0iZmlsbC1ydWxlOiBldmVub2RkOyBzdHJva2Utd2lkdGg6IDJweDsgZmlsbDogbm9uZTsiIGN4PSI5Ljk4NiIgY3k9IjkuOTk2IiByPSI5IiBjbGFzcz0iaGFsb0NvbG9yIiBieDpvcmlnaW49IjAuNSAwLjUwMDAyOCIvPiYjeGE7ICA8cG9seWxpbmUgY2xhc3M9InN0cm9rZUNvbG9yIiBzdHlsZT0iZmlsbDogbm9uZTsgc3Ryb2tlLXdpZHRoOiAzcHg7IiBwb2ludHM9IjQuNDg3IDEwLjM5NyA5Ljk5IDE0LjY3NSAxMy41MjcgNC4wNjEiLz4mI3hhOzwvc3ZnPg==;align=left;" vertex="1" parent="RnQfjQortNnoBOIsLoTC-60">
            <mxGeometry width="20" height="20" as="geometry" />
          </mxCell>
        </object>
        <mxCell id="RnQfjQortNnoBOIsLoTC-63" value="&lt;font style=&quot;font-size: 14px&quot;&gt;&lt;b&gt;1: &lt;/b&gt;User initiates request in web client to retrieve a resource from a public gateway&lt;/font&gt;" style="text;html=1;strokeColor=none;fillColor=none;align=left;verticalAlign=middle;whiteSpace=wrap;rounded=0;spacingLeft=5;" vertex="1" parent="RnQfjQortNnoBOIsLoTC-60">
          <mxGeometry x="20" width="270" height="20" as="geometry" />
        </mxCell>
        <UserObject label="" link="data:action/json,{&quot;actions&quot;:[{&quot;hide&quot;:{&quot;tags&quot;:[&quot;steps&quot;]}},{&quot;hide&quot;:{&quot;tags&quot;:[&quot;toggles&quot;]}},{&quot;show&quot;:{&quot;tags&quot;:[&quot;3&quot;]}},{&quot;show&quot;:{&quot;tags&quot;:[&quot;toggle3&quot;]}}]}" id="RnQfjQortNnoBOIsLoTC-68">
          <mxCell style="group" vertex="1" connectable="0" parent="RnQfjQortNnoBOIsLoTC-100">
            <mxGeometry x="-230" y="214" width="300" height="20" as="geometry" />
          </mxCell>
        </UserObject>
        <object label="" tags="unchecked" id="RnQfjQortNnoBOIsLoTC-69">
          <mxCell style="shape=image;editableCssRules=\.[haloColor,layerColor];imageAspect=0;aspect=fixed;verticalLabelPosition=bottom;verticalAlign=top;strokeColor=#000000;fillColor=#000000;image=data:image/svg+xml,PHN2ZyB4bWxucz0iaHR0cDovL3d3dy53My5vcmcvMjAwMC9zdmciIHhtbG5zOmJ4PSJodHRwczovL2JveHktc3ZnLmNvbSIgdmlld0JveD0iMCAwIDIwIDIwIj4mI3hhOyAgPHN0eWxlIHR5cGU9InRleHQvY3NzIj4mI3hhOwkuaGFsb0NvbG9ye3N0cm9rZTojMDAwMDAwO30mI3hhOwkubGF5ZXJDb2xvcntmaWxsOiNGRkZGRkY7fSYjeGE7CS5zdHJva2VDb2xvcntzdHJva2U6IzAwMDAwMDtmaWxsOiMwMDAwMDA7fSYjeGE7CTwvc3R5bGU+JiN4YTsgIDxjaXJjbGUgc3R5bGU9InN0cm9rZTogcmdiKDAsIDAsIDApOyIgY3g9IjkuOTkyIiBjeT0iMTAiIHI9IjkiIGNsYXNzPSJsYXllckNvbG9yIiBmaWxsPSIjRkZGRkZGIi8+JiN4YTsgIDxjaXJjbGUgc3R5bGU9ImZpbGwtcnVsZTogZXZlbm9kZDsgc3Ryb2tlLXdpZHRoOiAycHg7IGZpbGw6IG5vbmU7IiBjeD0iOS45ODYiIGN5PSI5Ljk5NiIgcj0iOSIgY2xhc3M9ImhhbG9Db2xvciIgYng6b3JpZ2luPSIwLjUgMC41MDAwMjgiLz4mI3hhOzwvc3ZnPg==;align=left;" vertex="1" parent="RnQfjQortNnoBOIsLoTC-68">
            <mxGeometry width="20" height="20" as="geometry" />
          </mxCell>
        </object>
        <object label="" tags="toggles toggle3" id="RnQfjQortNnoBOIsLoTC-70">
          <mxCell style="shape=image;editableCssRules=\.[layerColor,haloColor,strokeColor];imageAspect=0;aspect=fixed;verticalLabelPosition=bottom;verticalAlign=top;strokeColor=#000000;fillColor=#000000;image=data:image/svg+xml,PHN2ZyB4bWxucz0iaHR0cDovL3d3dy53My5vcmcvMjAwMC9zdmciIHhtbG5zOmJ4PSJodHRwczovL2JveHktc3ZnLmNvbSIgdmlld0JveD0iMCAwIDIwIDIwIj4mI3hhOyAgPHN0eWxlIHR5cGU9InRleHQvY3NzIj4uaGFsb0NvbG9yIHsgc3Ryb2tlOiByZ2IoMCwgMCwgMCk7IH0gLmxheWVyQ29sb3IgeyBmaWxsOiByZ2IoMjU1LCAyNTUsIDI1NSk7IH0gLnN0cm9rZUNvbG9yIHsgc3Ryb2tlOiByZ2IoMCwgMCwgMCk7IH0gPC9zdHlsZT4mI3hhOyAgPGNpcmNsZSBzdHlsZT0ic3Ryb2tlOiByZ2IoMCwgMCwgMCk7IiBjeD0iOS45OTIiIGN5PSIxMCIgcj0iOSIgY2xhc3M9ImxheWVyQ29sb3IiIGZpbGw9IiNGRkZGRkYiLz4mI3hhOyAgPGNpcmNsZSBzdHlsZT0iZmlsbC1ydWxlOiBldmVub2RkOyBzdHJva2Utd2lkdGg6IDJweDsgZmlsbDogbm9uZTsiIGN4PSI5Ljk4NiIgY3k9IjkuOTk2IiByPSI5IiBjbGFzcz0iaGFsb0NvbG9yIiBieDpvcmlnaW49IjAuNSAwLjUwMDAyOCIvPiYjeGE7ICA8cG9seWxpbmUgY2xhc3M9InN0cm9rZUNvbG9yIiBzdHlsZT0iZmlsbDogbm9uZTsgc3Ryb2tlLXdpZHRoOiAzcHg7IiBwb2ludHM9IjQuNDg3IDEwLjM5NyA5Ljk5IDE0LjY3NSAxMy41MjcgNC4wNjEiLz4mI3hhOzwvc3ZnPg==;align=left;" vertex="1" parent="RnQfjQortNnoBOIsLoTC-68">
            <mxGeometry width="20" height="20" as="geometry" />
          </mxCell>
        </object>
        <mxCell id="RnQfjQortNnoBOIsLoTC-71" value="&lt;font style=&quot;font-size: 14px&quot;&gt;&lt;b&gt;3:&amp;nbsp;&lt;/b&gt;&lt;/font&gt;&lt;span style=&quot;font-size: 14px&quot;&gt;User enters necessary credentials to authenticate with external IDP&lt;/span&gt;" style="text;html=1;strokeColor=none;fillColor=none;align=left;verticalAlign=middle;whiteSpace=wrap;rounded=0;spacingLeft=5;" vertex="1" parent="RnQfjQortNnoBOIsLoTC-68">
          <mxGeometry x="23.076923076923077" width="276.9230769230769" height="20" as="geometry" />
        </mxCell>
        <UserObject label="" link="data:action/json,{&quot;actions&quot;:[{&quot;hide&quot;:{&quot;tags&quot;:[&quot;steps&quot;]}},{&quot;hide&quot;:{&quot;tags&quot;:[&quot;toggles&quot;]}},{&quot;show&quot;:{&quot;tags&quot;:[&quot;5&quot;]}},{&quot;show&quot;:{&quot;tags&quot;:[&quot;toggle5&quot;]}}]}" id="RnQfjQortNnoBOIsLoTC-76">
          <mxCell style="group" vertex="1" connectable="0" parent="RnQfjQortNnoBOIsLoTC-100">
            <mxGeometry x="-230" y="339" width="300" height="20" as="geometry" />
          </mxCell>
        </UserObject>
        <object label="" tags="unchecked" id="RnQfjQortNnoBOIsLoTC-77">
          <mxCell style="shape=image;editableCssRules=\.[haloColor,layerColor];imageAspect=0;aspect=fixed;verticalLabelPosition=bottom;verticalAlign=top;strokeColor=#000000;fillColor=#000000;image=data:image/svg+xml,PHN2ZyB4bWxucz0iaHR0cDovL3d3dy53My5vcmcvMjAwMC9zdmciIHhtbG5zOmJ4PSJodHRwczovL2JveHktc3ZnLmNvbSIgdmlld0JveD0iMCAwIDIwIDIwIj4mI3hhOyAgPHN0eWxlIHR5cGU9InRleHQvY3NzIj4mI3hhOwkuaGFsb0NvbG9ye3N0cm9rZTojMDAwMDAwO30mI3hhOwkubGF5ZXJDb2xvcntmaWxsOiNGRkZGRkY7fSYjeGE7CS5zdHJva2VDb2xvcntzdHJva2U6IzAwMDAwMDtmaWxsOiMwMDAwMDA7fSYjeGE7CTwvc3R5bGU+JiN4YTsgIDxjaXJjbGUgc3R5bGU9InN0cm9rZTogcmdiKDAsIDAsIDApOyIgY3g9IjkuOTkyIiBjeT0iMTAiIHI9IjkiIGNsYXNzPSJsYXllckNvbG9yIiBmaWxsPSIjRkZGRkZGIi8+JiN4YTsgIDxjaXJjbGUgc3R5bGU9ImZpbGwtcnVsZTogZXZlbm9kZDsgc3Ryb2tlLXdpZHRoOiAycHg7IGZpbGw6IG5vbmU7IiBjeD0iOS45ODYiIGN5PSI5Ljk5NiIgcj0iOSIgY2xhc3M9ImhhbG9Db2xvciIgYng6b3JpZ2luPSIwLjUgMC41MDAwMjgiLz4mI3hhOzwvc3ZnPg==;align=left;" vertex="1" parent="RnQfjQortNnoBOIsLoTC-76">
            <mxGeometry width="20" height="20" as="geometry" />
          </mxCell>
        </object>
        <object label="" tags="toggles toggle5" id="RnQfjQortNnoBOIsLoTC-78">
          <mxCell style="shape=image;editableCssRules=\.[layerColor,haloColor,strokeColor];imageAspect=0;aspect=fixed;verticalLabelPosition=bottom;verticalAlign=top;strokeColor=#000000;fillColor=#000000;image=data:image/svg+xml,PHN2ZyB4bWxucz0iaHR0cDovL3d3dy53My5vcmcvMjAwMC9zdmciIHhtbG5zOmJ4PSJodHRwczovL2JveHktc3ZnLmNvbSIgdmlld0JveD0iMCAwIDIwIDIwIj4mI3hhOyAgPHN0eWxlIHR5cGU9InRleHQvY3NzIj4uaGFsb0NvbG9yIHsgc3Ryb2tlOiByZ2IoMCwgMCwgMCk7IH0gLmxheWVyQ29sb3IgeyBmaWxsOiByZ2IoMjU1LCAyNTUsIDI1NSk7IH0gLnN0cm9rZUNvbG9yIHsgc3Ryb2tlOiByZ2IoMCwgMCwgMCk7IH0gPC9zdHlsZT4mI3hhOyAgPGNpcmNsZSBzdHlsZT0ic3Ryb2tlOiByZ2IoMCwgMCwgMCk7IiBjeD0iOS45OTIiIGN5PSIxMCIgcj0iOSIgY2xhc3M9ImxheWVyQ29sb3IiIGZpbGw9IiNGRkZGRkYiLz4mI3hhOyAgPGNpcmNsZSBzdHlsZT0iZmlsbC1ydWxlOiBldmVub2RkOyBzdHJva2Utd2lkdGg6IDJweDsgZmlsbDogbm9uZTsiIGN4PSI5Ljk4NiIgY3k9IjkuOTk2IiByPSI5IiBjbGFzcz0iaGFsb0NvbG9yIiBieDpvcmlnaW49IjAuNSAwLjUwMDAyOCIvPiYjeGE7ICA8cG9seWxpbmUgY2xhc3M9InN0cm9rZUNvbG9yIiBzdHlsZT0iZmlsbDogbm9uZTsgc3Ryb2tlLXdpZHRoOiAzcHg7IiBwb2ludHM9IjQuNDg3IDEwLjM5NyA5Ljk5IDE0LjY3NSAxMy41MjcgNC4wNjEiLz4mI3hhOzwvc3ZnPg==;align=left;" vertex="1" parent="RnQfjQortNnoBOIsLoTC-76">
            <mxGeometry width="20" height="20" as="geometry" />
          </mxCell>
        </object>
        <mxCell id="RnQfjQortNnoBOIsLoTC-79" value="&lt;font style=&quot;font-size: 14px&quot;&gt;&lt;b&gt;5: &lt;/b&gt;OAuth provider issues token and redirects web client back to public gateway&lt;/font&gt;" style="text;html=1;strokeColor=none;fillColor=none;align=left;verticalAlign=middle;whiteSpace=wrap;rounded=0;spacingLeft=5;" vertex="1" parent="RnQfjQortNnoBOIsLoTC-76">
          <mxGeometry x="20" width="280" height="20" as="geometry" />
        </mxCell>
        <UserObject label="" link="data:action/json,{&quot;actions&quot;:[{&quot;hide&quot;:{&quot;tags&quot;:[&quot;steps&quot;]}},{&quot;hide&quot;:{&quot;tags&quot;:[&quot;toggles&quot;]}},{&quot;show&quot;:{&quot;tags&quot;:[&quot;8&quot;]}},{&quot;show&quot;:{&quot;tags&quot;:[&quot;toggle8&quot;]}}]}" id="RnQfjQortNnoBOIsLoTC-84">
          <mxCell style="group" vertex="1" connectable="0" parent="RnQfjQortNnoBOIsLoTC-100">
            <mxGeometry x="-230" y="526" width="300" height="20" as="geometry" />
          </mxCell>
        </UserObject>
        <object label="" tags="unchecked" id="RnQfjQortNnoBOIsLoTC-85">
          <mxCell style="shape=image;editableCssRules=\.[haloColor,layerColor];imageAspect=0;aspect=fixed;verticalLabelPosition=bottom;verticalAlign=top;strokeColor=#000000;fillColor=#000000;image=data:image/svg+xml,PHN2ZyB4bWxucz0iaHR0cDovL3d3dy53My5vcmcvMjAwMC9zdmciIHhtbG5zOmJ4PSJodHRwczovL2JveHktc3ZnLmNvbSIgdmlld0JveD0iMCAwIDIwIDIwIj4mI3hhOyAgPHN0eWxlIHR5cGU9InRleHQvY3NzIj4mI3hhOwkuaGFsb0NvbG9ye3N0cm9rZTojMDAwMDAwO30mI3hhOwkubGF5ZXJDb2xvcntmaWxsOiNGRkZGRkY7fSYjeGE7CS5zdHJva2VDb2xvcntzdHJva2U6IzAwMDAwMDtmaWxsOiMwMDAwMDA7fSYjeGE7CTwvc3R5bGU+JiN4YTsgIDxjaXJjbGUgc3R5bGU9InN0cm9rZTogcmdiKDAsIDAsIDApOyIgY3g9IjkuOTkyIiBjeT0iMTAiIHI9IjkiIGNsYXNzPSJsYXllckNvbG9yIiBmaWxsPSIjRkZGRkZGIi8+JiN4YTsgIDxjaXJjbGUgc3R5bGU9ImZpbGwtcnVsZTogZXZlbm9kZDsgc3Ryb2tlLXdpZHRoOiAycHg7IGZpbGw6IG5vbmU7IiBjeD0iOS45ODYiIGN5PSI5Ljk5NiIgcj0iOSIgY2xhc3M9ImhhbG9Db2xvciIgYng6b3JpZ2luPSIwLjUgMC41MDAwMjgiLz4mI3hhOzwvc3ZnPg==;align=left;" vertex="1" parent="RnQfjQortNnoBOIsLoTC-84">
            <mxGeometry width="20" height="20" as="geometry" />
          </mxCell>
        </object>
        <object label="" tags="toggles toggle8" id="RnQfjQortNnoBOIsLoTC-86">
          <mxCell style="shape=image;editableCssRules=\.[layerColor,haloColor,strokeColor];imageAspect=0;aspect=fixed;verticalLabelPosition=bottom;verticalAlign=top;strokeColor=#000000;fillColor=#000000;image=data:image/svg+xml,PHN2ZyB4bWxucz0iaHR0cDovL3d3dy53My5vcmcvMjAwMC9zdmciIHhtbG5zOmJ4PSJodHRwczovL2JveHktc3ZnLmNvbSIgdmlld0JveD0iMCAwIDIwIDIwIj4mI3hhOyAgPHN0eWxlIHR5cGU9InRleHQvY3NzIj4uaGFsb0NvbG9yIHsgc3Ryb2tlOiByZ2IoMCwgMCwgMCk7IH0gLmxheWVyQ29sb3IgeyBmaWxsOiByZ2IoMjU1LCAyNTUsIDI1NSk7IH0gLnN0cm9rZUNvbG9yIHsgc3Ryb2tlOiByZ2IoMCwgMCwgMCk7IH0gPC9zdHlsZT4mI3hhOyAgPGNpcmNsZSBzdHlsZT0ic3Ryb2tlOiByZ2IoMCwgMCwgMCk7IiBjeD0iOS45OTIiIGN5PSIxMCIgcj0iOSIgY2xhc3M9ImxheWVyQ29sb3IiIGZpbGw9IiNGRkZGRkYiLz4mI3hhOyAgPGNpcmNsZSBzdHlsZT0iZmlsbC1ydWxlOiBldmVub2RkOyBzdHJva2Utd2lkdGg6IDJweDsgZmlsbDogbm9uZTsiIGN4PSI5Ljk4NiIgY3k9IjkuOTk2IiByPSI5IiBjbGFzcz0iaGFsb0NvbG9yIiBieDpvcmlnaW49IjAuNSAwLjUwMDAyOCIvPiYjeGE7ICA8cG9seWxpbmUgY2xhc3M9InN0cm9rZUNvbG9yIiBzdHlsZT0iZmlsbDogbm9uZTsgc3Ryb2tlLXdpZHRoOiAzcHg7IiBwb2ludHM9IjQuNDg3IDEwLjM5NyA5Ljk5IDE0LjY3NSAxMy41MjcgNC4wNjEiLz4mI3hhOzwvc3ZnPg==;align=left;" vertex="1" parent="RnQfjQortNnoBOIsLoTC-84">
            <mxGeometry width="20" height="20" as="geometry" />
          </mxCell>
        </object>
        <mxCell id="RnQfjQortNnoBOIsLoTC-87" value="&lt;font style=&quot;font-size: 14px&quot;&gt;&lt;b&gt;8:&amp;nbsp;&lt;/b&gt;&lt;/font&gt;&lt;span style=&quot;font-size: 14px&quot;&gt;Public gateway forwards request to resource server, e.g. file server or API&lt;/span&gt;" style="text;html=1;strokeColor=none;fillColor=none;align=left;verticalAlign=middle;whiteSpace=wrap;rounded=0;spacingLeft=5;" vertex="1" parent="RnQfjQortNnoBOIsLoTC-84">
          <mxGeometry x="23.076923076923073" width="276.9230769230769" height="20" as="geometry" />
        </mxCell>
        <UserObject label="" link="data:action/json,{&quot;actions&quot;:[{&quot;hide&quot;:{&quot;tags&quot;:[&quot;steps&quot;]}},{&quot;hide&quot;:{&quot;tags&quot;:[&quot;toggles&quot;]}},{&quot;show&quot;:{&quot;tags&quot;:[&quot;9&quot;]}},{&quot;show&quot;:{&quot;tags&quot;:[&quot;toggle9&quot;]}}]}" id="RnQfjQortNnoBOIsLoTC-88">
          <mxCell style="group" vertex="1" connectable="0" parent="RnQfjQortNnoBOIsLoTC-100">
            <mxGeometry x="-230" y="588" width="300" height="20" as="geometry" />
          </mxCell>
        </UserObject>
        <object label="" tags="unchecked" id="RnQfjQortNnoBOIsLoTC-89">
          <mxCell style="shape=image;editableCssRules=\.[haloColor,layerColor];imageAspect=0;aspect=fixed;verticalLabelPosition=bottom;verticalAlign=top;strokeColor=#000000;fillColor=#000000;image=data:image/svg+xml,PHN2ZyB4bWxucz0iaHR0cDovL3d3dy53My5vcmcvMjAwMC9zdmciIHhtbG5zOmJ4PSJodHRwczovL2JveHktc3ZnLmNvbSIgdmlld0JveD0iMCAwIDIwIDIwIj4mI3hhOyAgPHN0eWxlIHR5cGU9InRleHQvY3NzIj4mI3hhOwkuaGFsb0NvbG9ye3N0cm9rZTojMDAwMDAwO30mI3hhOwkubGF5ZXJDb2xvcntmaWxsOiNGRkZGRkY7fSYjeGE7CS5zdHJva2VDb2xvcntzdHJva2U6IzAwMDAwMDtmaWxsOiMwMDAwMDA7fSYjeGE7CTwvc3R5bGU+JiN4YTsgIDxjaXJjbGUgc3R5bGU9InN0cm9rZTogcmdiKDAsIDAsIDApOyIgY3g9IjkuOTkyIiBjeT0iMTAiIHI9IjkiIGNsYXNzPSJsYXllckNvbG9yIiBmaWxsPSIjRkZGRkZGIi8+JiN4YTsgIDxjaXJjbGUgc3R5bGU9ImZpbGwtcnVsZTogZXZlbm9kZDsgc3Ryb2tlLXdpZHRoOiAycHg7IGZpbGw6IG5vbmU7IiBjeD0iOS45ODYiIGN5PSI5Ljk5NiIgcj0iOSIgY2xhc3M9ImhhbG9Db2xvciIgYng6b3JpZ2luPSIwLjUgMC41MDAwMjgiLz4mI3hhOzwvc3ZnPg==;align=left;" vertex="1" parent="RnQfjQortNnoBOIsLoTC-88">
            <mxGeometry width="20" height="20" as="geometry" />
          </mxCell>
        </object>
        <object label="" tags="toggles toggle9" id="RnQfjQortNnoBOIsLoTC-90">
          <mxCell style="shape=image;editableCssRules=\.[layerColor,haloColor,strokeColor];imageAspect=0;aspect=fixed;verticalLabelPosition=bottom;verticalAlign=top;strokeColor=#000000;fillColor=#000000;image=data:image/svg+xml,PHN2ZyB4bWxucz0iaHR0cDovL3d3dy53My5vcmcvMjAwMC9zdmciIHhtbG5zOmJ4PSJodHRwczovL2JveHktc3ZnLmNvbSIgdmlld0JveD0iMCAwIDIwIDIwIj4mI3hhOyAgPHN0eWxlIHR5cGU9InRleHQvY3NzIj4uaGFsb0NvbG9yIHsgc3Ryb2tlOiByZ2IoMCwgMCwgMCk7IH0gLmxheWVyQ29sb3IgeyBmaWxsOiByZ2IoMjU1LCAyNTUsIDI1NSk7IH0gLnN0cm9rZUNvbG9yIHsgc3Ryb2tlOiByZ2IoMCwgMCwgMCk7IH0gPC9zdHlsZT4mI3hhOyAgPGNpcmNsZSBzdHlsZT0ic3Ryb2tlOiByZ2IoMCwgMCwgMCk7IiBjeD0iOS45OTIiIGN5PSIxMCIgcj0iOSIgY2xhc3M9ImxheWVyQ29sb3IiIGZpbGw9IiNGRkZGRkYiLz4mI3hhOyAgPGNpcmNsZSBzdHlsZT0iZmlsbC1ydWxlOiBldmVub2RkOyBzdHJva2Utd2lkdGg6IDJweDsgZmlsbDogbm9uZTsiIGN4PSI5Ljk4NiIgY3k9IjkuOTk2IiByPSI5IiBjbGFzcz0iaGFsb0NvbG9yIiBieDpvcmlnaW49IjAuNSAwLjUwMDAyOCIvPiYjeGE7ICA8cG9seWxpbmUgY2xhc3M9InN0cm9rZUNvbG9yIiBzdHlsZT0iZmlsbDogbm9uZTsgc3Ryb2tlLXdpZHRoOiAzcHg7IiBwb2ludHM9IjQuNDg3IDEwLjM5NyA5Ljk5IDE0LjY3NSAxMy41MjcgNC4wNjEiLz4mI3hhOzwvc3ZnPg==;align=left;" vertex="1" parent="RnQfjQortNnoBOIsLoTC-88">
            <mxGeometry width="20" height="20" as="geometry" />
          </mxCell>
        </object>
        <mxCell id="RnQfjQortNnoBOIsLoTC-91" value="&lt;font style=&quot;font-size: 14px&quot;&gt;&lt;b&gt;9:&amp;nbsp;&lt;/b&gt;&lt;/font&gt;&lt;span style=&quot;font-size: 14px&quot;&gt;Resource server responds to request, and sends requested data back to the user&lt;/span&gt;" style="text;html=1;strokeColor=none;fillColor=none;align=left;verticalAlign=middle;whiteSpace=wrap;rounded=0;spacingLeft=5;" vertex="1" parent="RnQfjQortNnoBOIsLoTC-88">
          <mxGeometry x="23.076923076923073" width="276.9230769230769" height="20" as="geometry" />
        </mxCell>
        <UserObject label="" link="data:action/json,{&quot;actions&quot;:[{&quot;show&quot;:{&quot;tags&quot;:[&quot;steps&quot;]}},{&quot;show&quot;:{&quot;tags&quot;:[&quot;toggles&quot;]}}]}" id="RnQfjQortNnoBOIsLoTC-111">
          <mxCell style="group;fillOpacity=100;" vertex="1" connectable="0" parent="RnQfjQortNnoBOIsLoTC-100">
            <mxGeometry x="-230" y="650" width="120" height="20" as="geometry" />
          </mxCell>
        </UserObject>
        <object label="" tags="unchecked" id="RnQfjQortNnoBOIsLoTC-112">
          <mxCell style="shape=image;editableCssRules=\.[haloColor,layerColor];imageAspect=0;aspect=fixed;verticalLabelPosition=bottom;verticalAlign=top;strokeColor=#000000;fillColor=#000000;image=data:image/svg+xml,PHN2ZyB4bWxucz0iaHR0cDovL3d3dy53My5vcmcvMjAwMC9zdmciIHhtbG5zOmJ4PSJodHRwczovL2JveHktc3ZnLmNvbSIgdmlld0JveD0iMCAwIDIwIDIwIj4mI3hhOyAgPHN0eWxlIHR5cGU9InRleHQvY3NzIj4mI3hhOwkuaGFsb0NvbG9ye3N0cm9rZTojMDAwMDAwO30mI3hhOwkubGF5ZXJDb2xvcntmaWxsOiNGRkZGRkY7fSYjeGE7CS5zdHJva2VDb2xvcntzdHJva2U6IzAwMDAwMDtmaWxsOiMwMDAwMDA7fSYjeGE7CTwvc3R5bGU+JiN4YTsgIDxjaXJjbGUgc3R5bGU9InN0cm9rZTogcmdiKDAsIDAsIDApOyIgY3g9IjkuOTkyIiBjeT0iMTAiIHI9IjkiIGNsYXNzPSJsYXllckNvbG9yIiBmaWxsPSIjRkZGRkZGIi8+JiN4YTsgIDxjaXJjbGUgc3R5bGU9ImZpbGwtcnVsZTogZXZlbm9kZDsgc3Ryb2tlLXdpZHRoOiAycHg7IGZpbGw6IG5vbmU7IiBjeD0iOS45ODYiIGN5PSI5Ljk5NiIgcj0iOSIgY2xhc3M9ImhhbG9Db2xvciIgYng6b3JpZ2luPSIwLjUgMC41MDAwMjgiLz4mI3hhOzwvc3ZnPg==;align=left;" vertex="1" parent="RnQfjQortNnoBOIsLoTC-111">
            <mxGeometry width="20" height="20" as="geometry" />
          </mxCell>
        </object>
        <object label="" tags="toggles" id="RnQfjQortNnoBOIsLoTC-113">
          <mxCell style="shape=image;editableCssRules=\.[layerColor,haloColor,strokeColor];imageAspect=0;aspect=fixed;verticalLabelPosition=bottom;verticalAlign=top;strokeColor=#000000;fillColor=#000000;image=data:image/svg+xml,PHN2ZyB4bWxucz0iaHR0cDovL3d3dy53My5vcmcvMjAwMC9zdmciIHhtbG5zOmJ4PSJodHRwczovL2JveHktc3ZnLmNvbSIgdmlld0JveD0iMCAwIDIwIDIwIj4mI3hhOyAgPHN0eWxlIHR5cGU9InRleHQvY3NzIj4uaGFsb0NvbG9yIHsgc3Ryb2tlOiByZ2IoMCwgMCwgMCk7IH0gLmxheWVyQ29sb3IgeyBmaWxsOiByZ2IoMjU1LCAyNTUsIDI1NSk7IH0gLnN0cm9rZUNvbG9yIHsgc3Ryb2tlOiByZ2IoMCwgMCwgMCk7IH0gPC9zdHlsZT4mI3hhOyAgPGNpcmNsZSBzdHlsZT0ic3Ryb2tlOiByZ2IoMCwgMCwgMCk7IiBjeD0iOS45OTIiIGN5PSIxMCIgcj0iOSIgY2xhc3M9ImxheWVyQ29sb3IiIGZpbGw9IiNGRkZGRkYiLz4mI3hhOyAgPGNpcmNsZSBzdHlsZT0iZmlsbC1ydWxlOiBldmVub2RkOyBzdHJva2Utd2lkdGg6IDJweDsgZmlsbDogbm9uZTsiIGN4PSI5Ljk4NiIgY3k9IjkuOTk2IiByPSI5IiBjbGFzcz0iaGFsb0NvbG9yIiBieDpvcmlnaW49IjAuNSAwLjUwMDAyOCIvPiYjeGE7ICA8cG9seWxpbmUgY2xhc3M9InN0cm9rZUNvbG9yIiBzdHlsZT0iZmlsbDogbm9uZTsgc3Ryb2tlLXdpZHRoOiAzcHg7IiBwb2ludHM9IjQuNDg3IDEwLjM5NyA5Ljk5IDE0LjY3NSAxMy41MjcgNC4wNjEiLz4mI3hhOzwvc3ZnPg==;align=left;" vertex="1" parent="RnQfjQortNnoBOIsLoTC-111">
            <mxGeometry width="20" height="20" as="geometry" />
          </mxCell>
        </object>
        <mxCell id="RnQfjQortNnoBOIsLoTC-114" value="&lt;b&gt;&lt;font style=&quot;font-size: 14px&quot;&gt;View All&lt;/font&gt;&lt;/b&gt;" style="text;html=1;strokeColor=none;fillColor=none;align=left;verticalAlign=middle;whiteSpace=wrap;rounded=0;spacingLeft=5;" vertex="1" parent="RnQfjQortNnoBOIsLoTC-111">
          <mxGeometry x="20" width="100" height="20" as="geometry" />
        </mxCell>
        <UserObject label="" link="data:action/json,{&quot;actions&quot;:[{&quot;hide&quot;:{&quot;tags&quot;:[&quot;steps&quot;]}}, {&quot;hide&quot;:{&quot;tags&quot;:[&quot;toggles&quot;]}}, {&quot;show&quot;:{&quot;tags&quot;:[&quot;4&quot;]}}, {&quot;show&quot;:{&quot;tags&quot;:[&quot;toggle4&quot;]}}]}" id="RnQfjQortNnoBOIsLoTC-119">
          <mxCell style="group" vertex="1" connectable="0" parent="RnQfjQortNnoBOIsLoTC-100">
            <mxGeometry x="-230" y="267" width="290" height="40" as="geometry" />
          </mxCell>
        </UserObject>
        <object label="" tags="unchecked" id="RnQfjQortNnoBOIsLoTC-73">
          <mxCell style="shape=image;editableCssRules=\.[haloColor,layerColor];imageAspect=0;aspect=fixed;verticalLabelPosition=bottom;verticalAlign=top;strokeColor=#000000;fillColor=#000000;image=data:image/svg+xml,PHN2ZyB4bWxucz0iaHR0cDovL3d3dy53My5vcmcvMjAwMC9zdmciIHhtbG5zOmJ4PSJodHRwczovL2JveHktc3ZnLmNvbSIgdmlld0JveD0iMCAwIDIwIDIwIj4mI3hhOyAgPHN0eWxlIHR5cGU9InRleHQvY3NzIj4mI3hhOwkuaGFsb0NvbG9ye3N0cm9rZTojMDAwMDAwO30mI3hhOwkubGF5ZXJDb2xvcntmaWxsOiNGRkZGRkY7fSYjeGE7CS5zdHJva2VDb2xvcntzdHJva2U6IzAwMDAwMDtmaWxsOiMwMDAwMDA7fSYjeGE7CTwvc3R5bGU+JiN4YTsgIDxjaXJjbGUgc3R5bGU9InN0cm9rZTogcmdiKDAsIDAsIDApOyIgY3g9IjkuOTkyIiBjeT0iMTAiIHI9IjkiIGNsYXNzPSJsYXllckNvbG9yIiBmaWxsPSIjRkZGRkZGIi8+JiN4YTsgIDxjaXJjbGUgc3R5bGU9ImZpbGwtcnVsZTogZXZlbm9kZDsgc3Ryb2tlLXdpZHRoOiAycHg7IGZpbGw6IG5vbmU7IiBjeD0iOS45ODYiIGN5PSI5Ljk5NiIgcj0iOSIgY2xhc3M9ImhhbG9Db2xvciIgYng6b3JpZ2luPSIwLjUgMC41MDAwMjgiLz4mI3hhOzwvc3ZnPg==;align=left;" vertex="1" parent="RnQfjQortNnoBOIsLoTC-119">
            <mxGeometry y="10" width="20" height="20" as="geometry" />
          </mxCell>
        </object>
        <object label="" tags="toggles toggle4" id="RnQfjQortNnoBOIsLoTC-74">
          <mxCell style="shape=image;editableCssRules=\.[layerColor,haloColor,strokeColor];imageAspect=0;aspect=fixed;verticalLabelPosition=bottom;verticalAlign=top;strokeColor=#000000;fillColor=#000000;image=data:image/svg+xml,PHN2ZyB4bWxucz0iaHR0cDovL3d3dy53My5vcmcvMjAwMC9zdmciIHhtbG5zOmJ4PSJodHRwczovL2JveHktc3ZnLmNvbSIgdmlld0JveD0iMCAwIDIwIDIwIj4mI3hhOyAgPHN0eWxlIHR5cGU9InRleHQvY3NzIj4uaGFsb0NvbG9yIHsgc3Ryb2tlOiByZ2IoMCwgMCwgMCk7IH0gLmxheWVyQ29sb3IgeyBmaWxsOiByZ2IoMjU1LCAyNTUsIDI1NSk7IH0gLnN0cm9rZUNvbG9yIHsgc3Ryb2tlOiByZ2IoMCwgMCwgMCk7IH0gPC9zdHlsZT4mI3hhOyAgPGNpcmNsZSBzdHlsZT0ic3Ryb2tlOiByZ2IoMCwgMCwgMCk7IiBjeD0iOS45OTIiIGN5PSIxMCIgcj0iOSIgY2xhc3M9ImxheWVyQ29sb3IiIGZpbGw9IiNGRkZGRkYiLz4mI3hhOyAgPGNpcmNsZSBzdHlsZT0iZmlsbC1ydWxlOiBldmVub2RkOyBzdHJva2Utd2lkdGg6IDJweDsgZmlsbDogbm9uZTsiIGN4PSI5Ljk4NiIgY3k9IjkuOTk2IiByPSI5IiBjbGFzcz0iaGFsb0NvbG9yIiBieDpvcmlnaW49IjAuNSAwLjUwMDAyOCIvPiYjeGE7ICA8cG9seWxpbmUgY2xhc3M9InN0cm9rZUNvbG9yIiBzdHlsZT0iZmlsbDogbm9uZTsgc3Ryb2tlLXdpZHRoOiAzcHg7IiBwb2ludHM9IjQuNDg3IDEwLjM5NyA5Ljk5IDE0LjY3NSAxMy41MjcgNC4wNjEiLz4mI3hhOzwvc3ZnPg==;align=left;" vertex="1" parent="RnQfjQortNnoBOIsLoTC-119">
            <mxGeometry y="10" width="20" height="20" as="geometry" />
          </mxCell>
        </object>
        <mxCell id="RnQfjQortNnoBOIsLoTC-75" value="&lt;font style=&quot;font-size: 14px&quot;&gt;&lt;b&gt;4:&amp;nbsp;&lt;/b&gt;&lt;/font&gt;&lt;span style=&quot;font-size: 14px&quot;&gt;Upon successful authentication, IDP redirects web client to OAuth provider to issue an OAuth token&lt;/span&gt;" style="text;html=1;strokeColor=none;fillColor=none;align=left;verticalAlign=middle;whiteSpace=wrap;rounded=0;spacingLeft=5;" vertex="1" parent="RnQfjQortNnoBOIsLoTC-119">
          <mxGeometry x="20" width="270" height="40" as="geometry" />
        </mxCell>
        <UserObject label="" link="data:action/json,{&quot;actions&quot;:[{&quot;hide&quot;:{&quot;tags&quot;:[&quot;steps&quot;]}}, {&quot;hide&quot;:{&quot;tags&quot;:[&quot;toggles&quot;]}}, {&quot;show&quot;:{&quot;tags&quot;:[&quot;2&quot;]}}, {&quot;show&quot;:{&quot;tags&quot;:[&quot;toggle2&quot;]}}]}" id="RnQfjQortNnoBOIsLoTC-120">
          <mxCell style="group" vertex="1" connectable="0" parent="RnQfjQortNnoBOIsLoTC-100">
            <mxGeometry x="-230" y="142" width="290" height="40" as="geometry" />
          </mxCell>
        </UserObject>
        <object label="" tags="unchecked" id="RnQfjQortNnoBOIsLoTC-65">
          <mxCell style="shape=image;editableCssRules=\.[haloColor,layerColor];imageAspect=0;aspect=fixed;verticalLabelPosition=bottom;verticalAlign=top;strokeColor=#000000;fillColor=#000000;image=data:image/svg+xml,PHN2ZyB4bWxucz0iaHR0cDovL3d3dy53My5vcmcvMjAwMC9zdmciIHhtbG5zOmJ4PSJodHRwczovL2JveHktc3ZnLmNvbSIgdmlld0JveD0iMCAwIDIwIDIwIj4mI3hhOyAgPHN0eWxlIHR5cGU9InRleHQvY3NzIj4mI3hhOwkuaGFsb0NvbG9ye3N0cm9rZTojMDAwMDAwO30mI3hhOwkubGF5ZXJDb2xvcntmaWxsOiNGRkZGRkY7fSYjeGE7CS5zdHJva2VDb2xvcntzdHJva2U6IzAwMDAwMDtmaWxsOiMwMDAwMDA7fSYjeGE7CTwvc3R5bGU+JiN4YTsgIDxjaXJjbGUgc3R5bGU9InN0cm9rZTogcmdiKDAsIDAsIDApOyIgY3g9IjkuOTkyIiBjeT0iMTAiIHI9IjkiIGNsYXNzPSJsYXllckNvbG9yIiBmaWxsPSIjRkZGRkZGIi8+JiN4YTsgIDxjaXJjbGUgc3R5bGU9ImZpbGwtcnVsZTogZXZlbm9kZDsgc3Ryb2tlLXdpZHRoOiAycHg7IGZpbGw6IG5vbmU7IiBjeD0iOS45ODYiIGN5PSI5Ljk5NiIgcj0iOSIgY2xhc3M9ImhhbG9Db2xvciIgYng6b3JpZ2luPSIwLjUgMC41MDAwMjgiLz4mI3hhOzwvc3ZnPg==;align=left;" vertex="1" parent="RnQfjQortNnoBOIsLoTC-120">
            <mxGeometry y="10" width="20" height="20" as="geometry" />
          </mxCell>
        </object>
        <object label="" tags="toggles toggle2" id="RnQfjQortNnoBOIsLoTC-66">
          <mxCell style="shape=image;editableCssRules=\.[layerColor,haloColor,strokeColor];imageAspect=0;aspect=fixed;verticalLabelPosition=bottom;verticalAlign=top;strokeColor=#000000;fillColor=#000000;image=data:image/svg+xml,PHN2ZyB4bWxucz0iaHR0cDovL3d3dy53My5vcmcvMjAwMC9zdmciIHhtbG5zOmJ4PSJodHRwczovL2JveHktc3ZnLmNvbSIgdmlld0JveD0iMCAwIDIwIDIwIj4mI3hhOyAgPHN0eWxlIHR5cGU9InRleHQvY3NzIj4uaGFsb0NvbG9yIHsgc3Ryb2tlOiByZ2IoMCwgMCwgMCk7IH0gLmxheWVyQ29sb3IgeyBmaWxsOiByZ2IoMjU1LCAyNTUsIDI1NSk7IH0gLnN0cm9rZUNvbG9yIHsgc3Ryb2tlOiByZ2IoMCwgMCwgMCk7IH0gPC9zdHlsZT4mI3hhOyAgPGNpcmNsZSBzdHlsZT0ic3Ryb2tlOiByZ2IoMCwgMCwgMCk7IiBjeD0iOS45OTIiIGN5PSIxMCIgcj0iOSIgY2xhc3M9ImxheWVyQ29sb3IiIGZpbGw9IiNGRkZGRkYiLz4mI3hhOyAgPGNpcmNsZSBzdHlsZT0iZmlsbC1ydWxlOiBldmVub2RkOyBzdHJva2Utd2lkdGg6IDJweDsgZmlsbDogbm9uZTsiIGN4PSI5Ljk4NiIgY3k9IjkuOTk2IiByPSI5IiBjbGFzcz0iaGFsb0NvbG9yIiBieDpvcmlnaW49IjAuNSAwLjUwMDAyOCIvPiYjeGE7ICA8cG9seWxpbmUgY2xhc3M9InN0cm9rZUNvbG9yIiBzdHlsZT0iZmlsbDogbm9uZTsgc3Ryb2tlLXdpZHRoOiAzcHg7IiBwb2ludHM9IjQuNDg3IDEwLjM5NyA5Ljk5IDE0LjY3NSAxMy41MjcgNC4wNjEiLz4mI3hhOzwvc3ZnPg==;align=left;" vertex="1" parent="RnQfjQortNnoBOIsLoTC-120">
            <mxGeometry y="10" width="20" height="20" as="geometry" />
          </mxCell>
        </object>
        <mxCell id="RnQfjQortNnoBOIsLoTC-67" value="&lt;font style=&quot;font-size: 14px&quot;&gt;&lt;b&gt;2:&amp;nbsp; &lt;/b&gt;Public gateway looks for OAuth token, and, finding none, redirects web client to IPD&lt;/font&gt;" style="text;html=1;strokeColor=none;fillColor=none;align=left;verticalAlign=middle;whiteSpace=wrap;rounded=0;spacingLeft=5;" vertex="1" parent="RnQfjQortNnoBOIsLoTC-120">
          <mxGeometry x="23.19999999999999" width="266.8" height="40" as="geometry" />
        </mxCell>
        <UserObject label="" link="data:action/json,{&quot;actions&quot;:[{&quot;hide&quot;:{&quot;tags&quot;:[&quot;steps&quot;]}}, {&quot;hide&quot;:{&quot;tags&quot;:[&quot;toggles&quot;]}}, {&quot;show&quot;:{&quot;tags&quot;:[&quot;6&quot;]}}, {&quot;show&quot;:{&quot;tags&quot;:[&quot;toggle6&quot;]}}]}" id="RnQfjQortNnoBOIsLoTC-121">
          <mxCell style="group" vertex="1" connectable="0" parent="RnQfjQortNnoBOIsLoTC-100">
            <mxGeometry x="-230" y="391" width="300" height="40" as="geometry" />
          </mxCell>
        </UserObject>
        <object label="" tags="unchecked" id="RnQfjQortNnoBOIsLoTC-93">
          <mxCell style="shape=image;editableCssRules=\.[haloColor,layerColor];imageAspect=0;aspect=fixed;verticalLabelPosition=bottom;verticalAlign=top;strokeColor=#000000;fillColor=#000000;image=data:image/svg+xml,PHN2ZyB4bWxucz0iaHR0cDovL3d3dy53My5vcmcvMjAwMC9zdmciIHhtbG5zOmJ4PSJodHRwczovL2JveHktc3ZnLmNvbSIgdmlld0JveD0iMCAwIDIwIDIwIj4mI3hhOyAgPHN0eWxlIHR5cGU9InRleHQvY3NzIj4mI3hhOwkuaGFsb0NvbG9ye3N0cm9rZTojMDAwMDAwO30mI3hhOwkubGF5ZXJDb2xvcntmaWxsOiNGRkZGRkY7fSYjeGE7CS5zdHJva2VDb2xvcntzdHJva2U6IzAwMDAwMDtmaWxsOiMwMDAwMDA7fSYjeGE7CTwvc3R5bGU+JiN4YTsgIDxjaXJjbGUgc3R5bGU9InN0cm9rZTogcmdiKDAsIDAsIDApOyIgY3g9IjkuOTkyIiBjeT0iMTAiIHI9IjkiIGNsYXNzPSJsYXllckNvbG9yIiBmaWxsPSIjRkZGRkZGIi8+JiN4YTsgIDxjaXJjbGUgc3R5bGU9ImZpbGwtcnVsZTogZXZlbm9kZDsgc3Ryb2tlLXdpZHRoOiAycHg7IGZpbGw6IG5vbmU7IiBjeD0iOS45ODYiIGN5PSI5Ljk5NiIgcj0iOSIgY2xhc3M9ImhhbG9Db2xvciIgYng6b3JpZ2luPSIwLjUgMC41MDAwMjgiLz4mI3hhOzwvc3ZnPg==;align=left;" vertex="1" parent="RnQfjQortNnoBOIsLoTC-121">
            <mxGeometry y="10" width="20" height="20" as="geometry" />
          </mxCell>
        </object>
        <object label="" tags="toggles toggle6" id="RnQfjQortNnoBOIsLoTC-94">
          <mxCell style="shape=image;editableCssRules=\.[layerColor,haloColor,strokeColor];imageAspect=0;aspect=fixed;verticalLabelPosition=bottom;verticalAlign=top;strokeColor=#000000;fillColor=#000000;image=data:image/svg+xml,PHN2ZyB4bWxucz0iaHR0cDovL3d3dy53My5vcmcvMjAwMC9zdmciIHhtbG5zOmJ4PSJodHRwczovL2JveHktc3ZnLmNvbSIgdmlld0JveD0iMCAwIDIwIDIwIj4mI3hhOyAgPHN0eWxlIHR5cGU9InRleHQvY3NzIj4uaGFsb0NvbG9yIHsgc3Ryb2tlOiByZ2IoMCwgMCwgMCk7IH0gLmxheWVyQ29sb3IgeyBmaWxsOiByZ2IoMjU1LCAyNTUsIDI1NSk7IH0gLnN0cm9rZUNvbG9yIHsgc3Ryb2tlOiByZ2IoMCwgMCwgMCk7IH0gPC9zdHlsZT4mI3hhOyAgPGNpcmNsZSBzdHlsZT0ic3Ryb2tlOiByZ2IoMCwgMCwgMCk7IiBjeD0iOS45OTIiIGN5PSIxMCIgcj0iOSIgY2xhc3M9ImxheWVyQ29sb3IiIGZpbGw9IiNGRkZGRkYiLz4mI3hhOyAgPGNpcmNsZSBzdHlsZT0iZmlsbC1ydWxlOiBldmVub2RkOyBzdHJva2Utd2lkdGg6IDJweDsgZmlsbDogbm9uZTsiIGN4PSI5Ljk4NiIgY3k9IjkuOTk2IiByPSI5IiBjbGFzcz0iaGFsb0NvbG9yIiBieDpvcmlnaW49IjAuNSAwLjUwMDAyOCIvPiYjeGE7ICA8cG9seWxpbmUgY2xhc3M9InN0cm9rZUNvbG9yIiBzdHlsZT0iZmlsbDogbm9uZTsgc3Ryb2tlLXdpZHRoOiAzcHg7IiBwb2ludHM9IjQuNDg3IDEwLjM5NyA5Ljk5IDE0LjY3NSAxMy41MjcgNC4wNjEiLz4mI3hhOzwvc3ZnPg==;align=left;" vertex="1" parent="RnQfjQortNnoBOIsLoTC-121">
            <mxGeometry y="10" width="20" height="20" as="geometry" />
          </mxCell>
        </object>
        <mxCell id="RnQfjQortNnoBOIsLoTC-95" value="&lt;font style=&quot;font-size: 14px&quot;&gt;&lt;b&gt;6:&amp;nbsp; &lt;/b&gt;Public gateway checks OAuth token against OAuth provider&#39;s signature for authenticity&lt;/font&gt;" style="text;html=1;strokeColor=none;fillColor=none;align=left;verticalAlign=middle;whiteSpace=wrap;rounded=0;spacingLeft=5;" vertex="1" parent="RnQfjQortNnoBOIsLoTC-121">
          <mxGeometry x="20" width="280" height="40" as="geometry" />
        </mxCell>
        <UserObject label="" link="data:action/json,{&quot;actions&quot;:[{&quot;hide&quot;:{&quot;tags&quot;:[&quot;steps&quot;]}}, {&quot;hide&quot;:{&quot;tags&quot;:[&quot;toggles&quot;]}}, {&quot;show&quot;:{&quot;tags&quot;:[&quot;7&quot;]}}, {&quot;show&quot;:{&quot;tags&quot;:[&quot;toggle7&quot;]}}]}" id="RnQfjQortNnoBOIsLoTC-122">
          <mxCell style="group" vertex="1" connectable="0" parent="RnQfjQortNnoBOIsLoTC-100">
            <mxGeometry x="-230" y="453" width="299" height="40" as="geometry" />
          </mxCell>
        </UserObject>
        <object label="" tags="unchecked" id="RnQfjQortNnoBOIsLoTC-81">
          <mxCell style="shape=image;editableCssRules=\.[haloColor,layerColor];imageAspect=0;aspect=fixed;verticalLabelPosition=bottom;verticalAlign=top;strokeColor=#000000;fillColor=#000000;image=data:image/svg+xml,PHN2ZyB4bWxucz0iaHR0cDovL3d3dy53My5vcmcvMjAwMC9zdmciIHhtbG5zOmJ4PSJodHRwczovL2JveHktc3ZnLmNvbSIgdmlld0JveD0iMCAwIDIwIDIwIj4mI3hhOyAgPHN0eWxlIHR5cGU9InRleHQvY3NzIj4mI3hhOwkuaGFsb0NvbG9ye3N0cm9rZTojMDAwMDAwO30mI3hhOwkubGF5ZXJDb2xvcntmaWxsOiNGRkZGRkY7fSYjeGE7CS5zdHJva2VDb2xvcntzdHJva2U6IzAwMDAwMDtmaWxsOiMwMDAwMDA7fSYjeGE7CTwvc3R5bGU+JiN4YTsgIDxjaXJjbGUgc3R5bGU9InN0cm9rZTogcmdiKDAsIDAsIDApOyIgY3g9IjkuOTkyIiBjeT0iMTAiIHI9IjkiIGNsYXNzPSJsYXllckNvbG9yIiBmaWxsPSIjRkZGRkZGIi8+JiN4YTsgIDxjaXJjbGUgc3R5bGU9ImZpbGwtcnVsZTogZXZlbm9kZDsgc3Ryb2tlLXdpZHRoOiAycHg7IGZpbGw6IG5vbmU7IiBjeD0iOS45ODYiIGN5PSI5Ljk5NiIgcj0iOSIgY2xhc3M9ImhhbG9Db2xvciIgYng6b3JpZ2luPSIwLjUgMC41MDAwMjgiLz4mI3hhOzwvc3ZnPg==;align=left;" vertex="1" parent="RnQfjQortNnoBOIsLoTC-122">
            <mxGeometry y="10" width="20" height="20" as="geometry" />
          </mxCell>
        </object>
        <object label="" tags="toggles toggle7" id="RnQfjQortNnoBOIsLoTC-82">
          <mxCell style="shape=image;editableCssRules=\.[layerColor,haloColor,strokeColor];imageAspect=0;aspect=fixed;verticalLabelPosition=bottom;verticalAlign=top;strokeColor=#000000;fillColor=#000000;image=data:image/svg+xml,PHN2ZyB4bWxucz0iaHR0cDovL3d3dy53My5vcmcvMjAwMC9zdmciIHhtbG5zOmJ4PSJodHRwczovL2JveHktc3ZnLmNvbSIgdmlld0JveD0iMCAwIDIwIDIwIj4mI3hhOyAgPHN0eWxlIHR5cGU9InRleHQvY3NzIj4uaGFsb0NvbG9yIHsgc3Ryb2tlOiByZ2IoMCwgMCwgMCk7IH0gLmxheWVyQ29sb3IgeyBmaWxsOiByZ2IoMjU1LCAyNTUsIDI1NSk7IH0gLnN0cm9rZUNvbG9yIHsgc3Ryb2tlOiByZ2IoMCwgMCwgMCk7IH0gPC9zdHlsZT4mI3hhOyAgPGNpcmNsZSBzdHlsZT0ic3Ryb2tlOiByZ2IoMCwgMCwgMCk7IiBjeD0iOS45OTIiIGN5PSIxMCIgcj0iOSIgY2xhc3M9ImxheWVyQ29sb3IiIGZpbGw9IiNGRkZGRkYiLz4mI3hhOyAgPGNpcmNsZSBzdHlsZT0iZmlsbC1ydWxlOiBldmVub2RkOyBzdHJva2Utd2lkdGg6IDJweDsgZmlsbDogbm9uZTsiIGN4PSI5Ljk4NiIgY3k9IjkuOTk2IiByPSI5IiBjbGFzcz0iaGFsb0NvbG9yIiBieDpvcmlnaW49IjAuNSAwLjUwMDAyOCIvPiYjeGE7ICA8cG9seWxpbmUgY2xhc3M9InN0cm9rZUNvbG9yIiBzdHlsZT0iZmlsbDogbm9uZTsgc3Ryb2tlLXdpZHRoOiAzcHg7IiBwb2ludHM9IjQuNDg3IDEwLjM5NyA5Ljk5IDE0LjY3NSAxMy41MjcgNC4wNjEiLz4mI3hhOzwvc3ZnPg==;align=left;" vertex="1" parent="RnQfjQortNnoBOIsLoTC-122">
            <mxGeometry y="10" width="20" height="20" as="geometry" />
          </mxCell>
        </object>
        <mxCell id="RnQfjQortNnoBOIsLoTC-83" value="&lt;font style=&quot;font-size: 14px&quot;&gt;&lt;b&gt;7:&amp;nbsp;&lt;/b&gt;&lt;/font&gt;&lt;span style=&quot;font-size: 14px&quot;&gt;Public gateway may check token scopes&amp;nbsp; or token subject against an internal or external authorization service&lt;/span&gt;" style="text;html=1;strokeColor=none;fillColor=none;align=left;verticalAlign=middle;whiteSpace=wrap;rounded=0;spacingLeft=5;" vertex="1" parent="RnQfjQortNnoBOIsLoTC-122">
          <mxGeometry x="23" width="276" height="40" as="geometry" />
        </mxCell>
      </root>
    </mxGraphModel>
  </diagram>
</mxfile>
